<svg xmlns="http://www.w3.org/2000/svg" xmlns:xlink="http://www.w3.org/1999/xlink" version="1.1" viewBox="212.09 83.5 477.94 503.84"><defs><clipPath id="TDhdGfJSUOGM"><path fill="none" stroke="none" d=" M 0 0 L 1044 0 L 1044 679 L 0 679 L 0 0 Z"/></clipPath></defs><g transform="scale(1,1)" clip-path="url(#TDhdGfJSUOGM)"><g><path fill="rgb(255,102,0)" stroke="none" paint-order="stroke fill markers" fill-rule="evenodd" d=" M 534.2433039343321 242.93165345851213 L 530.8133322314821 229.21176664711234 L 517.0934454200811 232.6417383499616 L 520.5234171229323 246.36162516136207 L 534.2433039343321 242.93165345851213" fill-opacity="0.09803921568627451"/><path fill="rgb(192,192,192)" stroke="none" paint-order="stroke fill markers" d=" M 311.6820943818665 298.5719558466286 L 302.27431834286557 313.35560390791574 L 305.1203682370171 314.30428720596626 L 305.12036823701715 314.30428720596626 L 215.90772619950545 581.9422133185013 C 215.68941648370028 582.5971424659169 216.043366467132 583.3050424327803 216.6982956145476 583.5233521485854 C 216.82944395777093 583.5670682629932 216.9627163946932 583.5878371541191 217.09375626100282 583.5878371541191 C 217.6171038296413 583.5878371541191 218.10484084323434 583.2565635377356 218.27943444463173 582.7327827335433 L 307.4920764821434 315.0948566210084 L 307.49207648214343 315.0948566210084 L 310.33812637629495 316.0435399190589 L 311.6820943818665 298.5719558466286 Z" fill-opacity="0.6980392156862745"/><text fill="rgb(192,192,192)" stroke="none" font-family="geogebra-sans-serif, sans-serif" font-size="16px" font-style="normal" font-weight="normal" text-decoration="normal" x="260" y="439" text-anchor="start" dominant-baseline="alphabetic" fill-opacity="1">from</text><text fill="none" stroke="rgb(255,255,255)" font-family="geogebra-sans-serif, sans-serif" font-size="16px" font-style="normal" font-weight="normal" text-decoration="normal" x="260" y="439" text-anchor="start" dominant-baseline="alphabetic" stroke-opacity="1" stroke-linejoin="bevel" stroke-miterlimit="10" stroke-width="3">from</text><text fill="rgb(192,192,192)" stroke="none" font-family="geogebra-sans-serif, sans-serif" font-size="16px" font-style="normal" font-weight="normal" text-decoration="normal" x="260" y="439" text-anchor="start" dominant-baseline="alphabetic" fill-opacity="1">from</text><path fill="rgb(192,192,192)" stroke="none" paint-order="stroke fill markers" d=" M 690.0361506210579 203.9834417868307 L 674.1064269084202 211.284565155123 L 675.9805120510835 213.62717158345208 L 216.31271151262555 581.3614120142186 C 215.77363409378316 581.7926739492925 215.6862323751909 582.579289416623 216.11749431026482 583.1183668354654 C 216.36437109569326 583.4269628172509 216.72769771944354 583.5875440545817 217.09437574562995 583.5875440545817 C 217.36823698621905 583.5875440545817 217.6439676944548 583.4979691874715 217.87444913151162 583.3135840378261 L 217.8744491315116 583.3135840378261 L 677.5422496699696 215.5793436070597 L 679.4163348126328 217.92195003538876 L 690.036150621058 203.9834417868307 Z" fill-opacity="0.6980392156862745"/><text fill="rgb(192,192,192)" stroke="none" font-family="geogebra-sans-serif, sans-serif" font-size="16px" font-style="normal" font-weight="normal" text-decoration="normal" x="450" y="389" text-anchor="start" dominant-baseline="alphabetic" fill-opacity="1">to</text><text fill="none" stroke="rgb(255,255,255)" font-family="geogebra-sans-serif, sans-serif" font-size="16px" font-style="normal" font-weight="normal" text-decoration="normal" x="450" y="389" text-anchor="start" dominant-baseline="alphabetic" stroke-opacity="1" stroke-linejoin="bevel" stroke-miterlimit="10" stroke-width="3">to</text><text fill="rgb(192,192,192)" stroke="none" font-family="geogebra-sans-serif, sans-serif" font-size="16px" font-style="normal" font-weight="normal" text-decoration="normal" x="450" y="389" text-anchor="start" dominant-baseline="alphabetic" fill-opacity="1">to</text><path fill="rgb(160,160,160)" stroke="none" paint-order="stroke fill markers" d=" M 500.85912250146225 109.39492772703272 L 488.468349724916 121.78570050357898 L 491.0408285020536 123.32918776986156 L 216.02171416492791 581.6943783317379 C 215.66652896545878 582.2863536641864 215.8584852953356 583.0541789836939 216.45046062778414 583.409364183163 C 216.65181341022466 583.5301758526273 216.87351085055508 583.5876869360748 217.0923949384975 583.5876869360748 C 217.51702806028462 583.5876869360748 217.93107294920446 583.3712402703148 218.16544647920927 582.9806177203068 L 493.18456081633497 124.61542715843038 L 495.7570395934726 126.15891442471296 L 500.85912250146225 109.39492772703272 Z" fill-opacity="0.6980392156862745"/><text fill="rgb(160,160,160)" stroke="none" font-family="geogebra-sans-serif, sans-serif" font-size="16px" font-style="normal" font-weight="normal" text-decoration="normal" x="355" y="343" text-anchor="start" dominant-baseline="alphabetic" fill-opacity="1">xy</text><text fill="none" stroke="rgb(255,255,255)" font-family="geogebra-sans-serif, sans-serif" font-size="16px" font-style="normal" font-weight="normal" text-decoration="normal" x="355" y="343" text-anchor="start" dominant-baseline="alphabetic" stroke-opacity="1" stroke-linejoin="bevel" stroke-miterlimit="10" stroke-width="3">xy</text><text fill="rgb(160,160,160)" stroke="none" font-family="geogebra-sans-serif, sans-serif" font-size="16px" font-style="normal" font-weight="normal" text-decoration="normal" x="355" y="343" text-anchor="start" dominant-baseline="alphabetic" fill-opacity="1">xy</text><path fill="rgb(255,153,204)" stroke="none" paint-order="stroke fill markers" d=" M 500.85912250146225 109.39492772703272 L 485.83310340124814 118.4105391871612 L 487.9544237448078 120.53185953072085 L 310.7982109053833 297.68807237014545 C 310.31005554069424 298.1762277348345 310.31005554069424 298.9676839584227 310.7982109053833 299.4558393231118 C 311.04228858772785 299.6999170054563 311.36219148479717 299.8219558466286 311.6820943818665 299.8219558466286 C 312.0019972789358 299.8219558466286 312.3219001760051 299.6999170054563 312.56597785834964 299.4558393231118 L 489.7221906977741 122.2996264836872 L 491.8435110413338 124.42094682724685 L 500.85912250146225 109.39492772703272 Z" fill-opacity="0.6980392156862745"/><text fill="rgb(255,153,204)" stroke="none" font-family="geogebra-sans-serif, sans-serif" font-size="16px" font-style="normal" font-weight="normal" text-decoration="normal" x="403" y="200" text-anchor="start" dominant-baseline="alphabetic" fill-opacity="1">v1 = xy - from</text><text fill="none" stroke="rgb(255,255,255)" font-family="geogebra-sans-serif, sans-serif" font-size="16px" font-style="normal" font-weight="normal" text-decoration="normal" x="403" y="200" text-anchor="start" dominant-baseline="alphabetic" stroke-opacity="1" stroke-linejoin="bevel" stroke-miterlimit="10" stroke-width="3">v1 = xy - from</text><text fill="rgb(255,153,204)" stroke="none" font-family="geogebra-sans-serif, sans-serif" font-size="16px" font-style="normal" font-weight="normal" text-decoration="normal" x="403" y="200" text-anchor="start" dominant-baseline="alphabetic" fill-opacity="1">v1 = xy - from</text><path fill="rgb(102,204,255)" stroke="none" paint-order="stroke fill markers" d=" M 659.1128584289256 203.98344178683067 L 660.3255365541073 208.8341542875573 L 311.07575531927563 296.1465995962653 C 309.7362680492932 296.4814714137609 308.9218663140075 297.838807639237 309.25673813150314 299.17829490921946 C 309.5407231054736 300.31423480510114 310.5600371296476 301.07254723102835 311.6802052774041 301.07254723102835 C 311.88092653550393 301.07254723102835 312.08488607035656 301.0481989405171 312.2884334444573 300.99731209699195 L 661.5382146792889 213.68486678828398 L 662.7508928044706 218.53557928901063 L 690.036150621058 203.98344178683067 Z" fill-opacity="0.6980392156862745"/><text fill="rgb(102,204,255)" stroke="none" font-family="geogebra-sans-serif, sans-serif" font-size="16px" font-style="normal" font-weight="normal" text-decoration="normal" x="499" y="244" text-anchor="start" dominant-baseline="alphabetic" fill-opacity="1">v2 = to - from</text><text fill="none" stroke="rgb(255,255,255)" font-family="geogebra-sans-serif, sans-serif" font-size="16px" font-style="normal" font-weight="normal" text-decoration="normal" x="499" y="244" text-anchor="start" dominant-baseline="alphabetic" stroke-opacity="1" stroke-linejoin="bevel" stroke-miterlimit="10" stroke-width="3">v2 = to - from</text><text fill="rgb(102,204,255)" stroke="none" font-family="geogebra-sans-serif, sans-serif" font-size="16px" font-style="normal" font-weight="normal" text-decoration="normal" x="499" y="244" text-anchor="start" dominant-baseline="alphabetic" fill-opacity="1">v2 = to - from</text><path fill="rgb(255,102,153)" stroke="none" paint-order="stroke fill markers" d=" M 516.720105025457 242.93165345851213 L 517.447711900566 245.84208095894812 L 515.1088498810907 246.42679646381694 L 515.7151889436816 248.85215271418028 L 518.0540509631569 248.26743720931145 L 518.7816578382659 251.17786470974744 L 534.2433039343321 242.93165345851213 Z M 511.22827988050943 247.39693896396227 L 504.9223536295648 248.97342052669845 L 505.5286926921556 251.39877677706178 L 511.8346189431002 249.8222952143256 L 511.22827988050943 247.39693896396227 Z M 501.0417836289834 249.94356302684378 L 494.7358573780388 251.52004458957995 L 495.3421964406296 253.9454008399433 L 501.6481226915742 252.3689192772071 L 501.0417836289834 249.94356302684378 Z M 490.8552873774575 252.49018708972528 L 484.5493611265128 254.06666865246146 L 485.1557001891036 256.49202490282477 L 491.4616264400483 254.91554334008862 L 490.8552873774575 252.49018708972528 Z M 480.6687911259315 255.03681115260676 L 474.3628648749868 256.613292715343 L 474.9692039375776 259.0386489657063 L 481.27513018852227 257.46216740297007 L 480.6687911259315 255.03681115260676 Z M 470.48229487440545 257.5834352154883 L 464.17636862346086 259.1599167782245 L 464.78270768605165 261.5852730285878 L 471.08863393699625 260.0087914658516 L 470.48229487440545 257.5834352154883 Z M 460.29579862287954 260.1300592783698 L 453.98987237193484 261.70654084110595 L 454.5962114345256 264.1318970914692 L 460.90213768547034 262.5554155287331 L 460.29579862287954 260.1300592783698 Z M 450.1093023713535 262.6766833412513 L 443.80337612040887 264.25316490398745 L 444.40971518299966 266.67852115435073 L 450.7156414339443 265.1020395916146 L 450.1093023713535 262.6766833412513 Z M 439.9228061198275 265.2233074041328 L 433.6168798688829 266.79978896686896 L 434.2232189314737 269.22514521723224 L 440.5291451824183 267.6486636544961 L 439.9228061198275 265.2233074041328 Z M 429.7363098683016 267.7699314670143 L 423.4303836173569 269.34641302975047 L 424.0367226799477 271.77176928011374 L 430.3426489308924 270.1952877173776 L 429.7363098683016 267.7699314670143 Z M 419.54981361677557 270.3165555298958 L 413.2438873658309 271.89303709263197 L 413.8502264284217 274.31839334299525 L 420.15615267936636 272.7419117802591 L 419.54981361677557 270.3165555298958 Z M 409.3633173652496 272.8631795927773 L 403.05739111430495 274.4396611555135 L 403.66373017689574 276.86501740587676 L 409.9696564278404 275.2885358431406 L 409.3633173652496 272.8631795927773 Z M 399.17682111372363 275.4098036556588 L 392.8708948627789 276.986285218395 L 393.4772339253697 279.41164146875826 L 399.7831601763144 277.83515990602206 L 399.17682111372363 275.4098036556588 Z M 388.9903248621976 277.9564277185403 L 382.68439861125296 279.5329092812765 L 383.29073767384375 281.95826553163977 L 389.5966639247884 280.38178396890356 L 388.9903248621976 277.9564277185403 Z M 378.80382861067164 280.5030517814218 L 372.497902359727 282.079533344158 L 373.1042414223178 284.5048895945213 L 379.41016767326244 282.92840803178507 L 378.80382861067164 280.5030517814218 Z M 368.6173323591457 283.0496758443033 L 362.31140610820097 284.62615740703944 L 362.91774517079176 287.0515136574027 L 369.22367142173647 285.4750320946666 L 368.6173323591457 283.0496758443033 Z M 358.43083610761965 285.5962999071848 L 352.124909856675 287.17278146992095 L 352.7312489192658 289.5981377202842 L 359.03717517021045 288.0216561575481 L 358.43083610761965 285.5962999071848 Z M 348.2443398560937 288.1429239700663 L 341.93841360514904 289.71940553280245 L 342.54475266773983 292.14476178316573 L 348.8506789186845 290.5682802204296 L 348.2443398560937 288.1429239700663 Z M 338.0578436045677 290.6895480329478 L 331.75191735362307 292.26602959568396 L 332.35825641621386 294.69138584604724 L 338.6641826671585 293.1149042833111 L 338.0578436045677 290.6895480329478 Z M 327.8713473530417 293.2361720958293 L 321.56542110209705 294.81265365856547 L 322.17176016468784 297.23800990892875 L 328.4776864156325 295.6615283461926 L 327.8713473530417 293.2361720958293 Z M 317.68485110151573 295.7827961587108 L 311.3789248505711 297.359277721447 L 311.9852639131619 299.78463397181025 L 318.2911901641065 298.2081524090741 L 317.68485110151573 295.7827961587108 Z" fill-opacity="0.6980392156862745"/><text fill="rgb(255,102,153)" stroke="none" font-family="geogebra-sans-serif, sans-serif" font-size="16px" font-style="normal" font-weight="normal" text-decoration="normal" x="421" y="266" text-anchor="start" dominant-baseline="alphabetic" fill-opacity="1">v1の正射影</text><text fill="none" stroke="rgb(255,255,255)" font-family="geogebra-sans-serif, sans-serif" font-size="16px" font-style="normal" font-weight="normal" text-decoration="normal" x="421" y="266" text-anchor="start" dominant-baseline="alphabetic" stroke-opacity="1" stroke-linejoin="bevel" stroke-miterlimit="10" stroke-width="3">v1の正射影</text><text fill="rgb(255,102,153)" stroke="none" font-family="geogebra-sans-serif, sans-serif" font-size="16px" font-style="normal" font-weight="normal" text-decoration="normal" x="421" y="266" text-anchor="start" dominant-baseline="alphabetic" fill-opacity="1">v1の正射影</text><path fill="rgb(125,125,255)" stroke="none" paint-order="stroke fill markers" d=" M 500.85912250146225 109.39492772703272 L 500.85912250146225 126.91812663590778 L 503.76955000189827 126.19051976079878 L 533.0306258091504 243.23482298980755 C 533.1726182961356 243.80279293774842 533.6822753082225 244.18194915071203 534.242359382101 244.18194915071203 C 534.3427200111508 244.18194915071203 534.4446997785772 244.16977500545642 534.5464734656275 244.14433158369383 C 535.2162171006188 243.976895674946 535.6234179682616 243.29822756220796 535.4559820595138 242.6284839272167 L 506.19490625226155 125.58418069820796 L 509.10533375269756 124.85657382309896 L 500.85912250146225 109.39492772703272 Z" fill-opacity="0.6980392156862745"/><text fill="rgb(125,125,255)" stroke="none" font-family="geogebra-sans-serif, sans-serif" font-size="16px" font-style="normal" font-weight="normal" text-decoration="normal" x="513" y="177" text-anchor="start" dominant-baseline="alphabetic" fill-opacity="1">xyと線分の距離</text><text fill="none" stroke="rgb(255,255,255)" font-family="geogebra-sans-serif, sans-serif" font-size="16px" font-style="normal" font-weight="normal" text-decoration="normal" x="513" y="177" text-anchor="start" dominant-baseline="alphabetic" stroke-opacity="1" stroke-linejoin="bevel" stroke-miterlimit="10" stroke-width="3">xyと線分の距離</text><text fill="rgb(125,125,255)" stroke="none" font-family="geogebra-sans-serif, sans-serif" font-size="16px" font-style="normal" font-weight="normal" text-decoration="normal" x="513" y="177" text-anchor="start" dominant-baseline="alphabetic" fill-opacity="1">xyと線分の距離</text><path fill="rgb(128,128,128)" stroke="none" paint-order="stroke fill markers" d=" M 222.0935803220686 582.3374980260223 C 222.0935803220686 585.0989217751763 219.85500407122257 587.3374980260223 217.0935803220686 587.3374980260223 C 214.3321565729146 587.3374980260223 212.0935803220686 585.0989217751763 212.0935803220686 582.3374980260223 C 212.0935803220686 579.5760742768683 214.3321565729146 577.3374980260223 217.0935803220686 577.3374980260223 C 219.85500407122257 577.3374980260223 222.0935803220686 579.5760742768683 222.0935803220686 582.3374980260223 Z" fill-opacity="1"/><text fill="rgb(128,128,128)" stroke="none" font-family="geogebra-sans-serif, sans-serif" font-size="16px" font-style="normal" font-weight="normal" text-decoration="normal" x="221" y="572" text-anchor="start" dominant-baseline="alphabetic" fill-opacity="1">O</text><text fill="none" stroke="rgb(255,255,255)" font-family="geogebra-sans-serif, sans-serif" font-size="16px" font-style="normal" font-weight="normal" text-decoration="normal" x="221" y="572" text-anchor="start" dominant-baseline="alphabetic" stroke-opacity="1" stroke-linejoin="bevel" stroke-miterlimit="10" stroke-width="3">O</text><text fill="rgb(128,128,128)" stroke="none" font-family="geogebra-sans-serif, sans-serif" font-size="16px" font-style="normal" font-weight="normal" text-decoration="normal" x="221" y="572" text-anchor="start" dominant-baseline="alphabetic" fill-opacity="1">O</text><path fill="rgb(128,128,128)" stroke="none" paint-order="stroke fill markers" d=" M 505.85912250146225 109.39492772703272 C 505.85912250146225 112.15635147618669 503.6205462506162 114.39492772703272 500.85912250146225 114.39492772703272 C 498.0976987523083 114.39492772703272 495.85912250146225 112.15635147618669 495.85912250146225 109.39492772703272 C 495.85912250146225 106.63350397787876 498.0976987523083 104.39492772703272 500.85912250146225 104.39492772703272 C 503.6205462506162 104.39492772703272 505.85912250146225 106.63350397787876 505.85912250146225 109.39492772703272 Z" fill-opacity="1"/><text fill="rgb(128,128,128)" stroke="none" font-family="geogebra-sans-serif, sans-serif" font-size="16px" font-style="normal" font-weight="normal" text-decoration="normal" x="505" y="99" text-anchor="start" dominant-baseline="alphabetic" fill-opacity="1">xy</text><text fill="none" stroke="rgb(255,255,255)" font-family="geogebra-sans-serif, sans-serif" font-size="16px" font-style="normal" font-weight="normal" text-decoration="normal" x="505" y="99" text-anchor="start" dominant-baseline="alphabetic" stroke-opacity="1" stroke-linejoin="bevel" stroke-miterlimit="10" stroke-width="3">xy</text><text fill="rgb(128,128,128)" stroke="none" font-family="geogebra-sans-serif, sans-serif" font-size="16px" font-style="normal" font-weight="normal" text-decoration="normal" x="505" y="99" text-anchor="start" dominant-baseline="alphabetic" fill-opacity="1">xy</text></g></g></svg>