# Aspose.3D Wavefront OBJ Exporter
# Copyright 2004-2023 Aspose Pty Ltd.
# File created: 06/25/2023 01:53:34


#
# object obj_40149296
#

v 0 0.52573102712631224 0.85065102577209472
v 0.85065102577209472 0 0.52573102712631224
v 0.52573102712631224 0.85065102577209472 0
v 0 -0.52573102712631224 0.85065102577209472
v 0.52573102712631224 -0.85065102577209472 0
v 0 -0.52573102712631224 -0.85065102577209472
v -0.85065102577209472 0 -0.52573102712631224
v 0 0.52573102712631224 -0.85065102577209472
v -0.52573102712631224 0.85065102577209472 0
v 0.85065102577209472 0 -0.52573102712631224
v -0.85065102577209472 0 0.52573102712631224
v -0.52573102712631224 -0.85065102577209472 0
# 12 vertices

vn 0.57735025882720944 0.57735025882720944 0.57735025882720944
vn 0.35682228207588196 0 0.93417227268218992
vn 0.57735025882720944 -0.57735025882720944 0.57735025882720944
vn -0.35682228207588196 0 -0.93417227268218992
vn 0 0.93417227268218992 0.35682228207588196
vn 0 0.93417227268218992 -0.35682228207588196
vn -0.57735025882720944 0.57735025882720944 -0.57735025882720944
vn 0.93417227268218992 -0.35682228207588196 0
vn 0.35682228207588196 0 -0.93417227268218992
vn 0.93417227268218992 0.35682228207588196 0
vn 0.57735025882720944 0.57735025882720944 -0.57735025882720944
vn 0.57735025882720944 -0.57735025882720944 -0.57735025882720944
vn -0.35682228207588196 0 0.93417227268218992
vn -0.57735025882720944 0.57735025882720944 0.57735025882720944
vn -0.93417227268218992 0.35682228207588196 0
vn 0 -0.93417227268218992 0.35682228207588196
vn -0.57735025882720944 -0.57735025882720944 0.57735025882720944
vn -0.57735025882720944 -0.57735025882720944 -0.57735025882720944
vn 0 -0.93417227268218992 -0.35682228207588196
vn -0.93417227268218992 -0.35682228207588196 0
# 20 vertex normals

g obj_40149296
s 1
f 1//1 2//1 3//1
f 4//2 2//2 1//2
f 4//3 5//3 2//3
f 6//4 7//4 8//4
f 9//5 1//5 3//5
f 9//6 3//6 8//6
f 9//7 8//7 7//7
f 10//8 2//8 5//8
f 10//9 6//9 8//9
f 10//10 3//10 2//10
f 10//11 8//11 3//11
f 10//12 5//12 6//12
f 11//13 4//13 1//13
f 11//14 1//14 9//14
f 11//15 9//15 7//15
f 12//16 5//16 4//16
f 12//17 4//17 11//17
f 12//18 7//18 6//18
f 12//19 6//19 5//19
f 12//20 11//20 7//20
#20 polygons

