<svg xmlns="http://www.w3.org/2000/svg" xmlns:xlink="http://www.w3.org/1999/xlink" version="1.1" viewBox="108.52 16.21 594.85 413.71"><defs><clipPath id="HeWbeyIUUrbG"><path fill="none" stroke="none" d=" M 0 0 L 1044 0 L 1044 678 L 0 678 L 0 0 Z"/></clipPath></defs><g transform="scale(1,1)" clip-path="url(#HeWbeyIUUrbG)"><g><path fill="rgb(153,255,0)" stroke="none" paint-order="stroke fill markers" d=" M 477.2581192712087 91.17591009084015 C 480.3202821076344 100.31063426297459 487.5832397497809 107.41890253291308 496.78176100776074 110.28372950923415 C 505.9802822657405 113.14855648555516 515.9950063345019 111.42132363049467 523.7024583933971 105.64073458632322 L 505.70245839339714 81.64073458632322 Z" fill-opacity="0.5294117647058824"/><path fill="none" stroke="rgb(153,255,0)" paint-order="fill stroke markers" d=" M 477.2581192712087 91.17591009084015 C 480.3202821076344 100.31063426297459 487.5832397497809 107.41890253291308 496.78176100776074 110.28372950923415 C 505.9802822657405 113.14855648555516 515.9950063345019 111.42132363049467 523.7024583933971 105.64073458632322 L 505.70245839339714 81.64073458632322 Z" stroke-opacity="0.6" stroke-linecap="round" stroke-linejoin="round" stroke-miterlimit="10" stroke-width="2.5"/><path fill="rgb(153,255,0)" stroke="none" paint-order="stroke fill markers" d=" M 659.3459853916117 286.49877058394264 C 654.6298521291651 290.0358705307777 651.0603597888094 294.8840699575342 649.0833307741183 300.43783852114274 L 677.3459853916117 310.49877058394264 Z" fill-opacity="0.5372549019607843"/><path fill="none" stroke="rgb(153,255,0)" paint-order="fill stroke markers" d=" M 659.3459853916117 286.49877058394264 C 654.6298521291651 290.0358705307777 651.0603597888094 294.8840699575342 649.0833307741183 300.43783852114274 L 677.3459853916117 310.49877058394264 Z" stroke-opacity="0.6" stroke-linecap="round" stroke-linejoin="round" stroke-miterlimit="10" stroke-width="2.5"/><path fill="none" stroke="rgb(255,204,51)" paint-order="fill stroke markers" d=" M 567.4941281127544 164.0296275454662 L 559.0088467385165 152.7159190464822 L 547.695138239531 161.20120042072003 L 556.1804196137705 172.51490891970423 L 567.4941281127544 164.0296275454662" stroke-opacity="0.6" stroke-linecap="round" stroke-linejoin="round" stroke-miterlimit="10" stroke-width="1.5"/><path fill="none" stroke="rgb(255,204,51)" paint-order="fill stroke markers" d=" M 219.62991339637284 424.9277885827523 L 567.4941281127544 164.0296275454662" stroke-opacity="1" stroke-linejoin="round" stroke-miterlimit="10" stroke-width="2" stroke-dasharray="2,3"/><path fill="none" stroke="rgb(255,204,51)" paint-order="fill stroke markers" d=" M 109.51780605395756 278.1116454595319 L 457.38202077033895 17.213484422245642" stroke-opacity="1" stroke-linejoin="round" stroke-miterlimit="10" stroke-width="2" stroke-dasharray="2,3"/><path fill="rgb(192,192,192)" stroke="none" paint-order="stroke fill markers" d=" M 505.70245839339714 81.64073458632322 L 491.5543831608121 91.97971264090457 L 493.8590469996043 93.90026583989801 L 218.66963679687612 424.1275580831717 C 218.22768169560828 424.6579042046931 218.29933677527083 425.4461100809812 218.82968289679224 425.8880651822491 C 219.06336595310248 426.08280106250766 219.34711228010332 426.1778199258915 219.62924218939585 426.1778199258915 C 219.98740903726247 426.17781992589147 220.34297077486028 426.02468214754407 220.59018999586957 425.72801908233293 L 495.7796001985977 95.5007268390592 L 498.08426403738986 97.42128003805264 L 505.70245839339714 81.64073458632322 Z" fill-opacity="0.6980392156862745"/><text fill="rgb(192,192,192)" stroke="none" font-family="geogebra-sans-serif, sans-serif" font-size="16px" font-style="normal" font-weight="normal" text-decoration="normal" x="359" y="250" text-anchor="start" dominant-baseline="alphabetic" fill-opacity="1">p1</text><text fill="none" stroke="rgb(255,255,255)" font-family="geogebra-sans-serif, sans-serif" font-size="16px" font-style="normal" font-weight="normal" text-decoration="normal" x="359" y="250" text-anchor="start" dominant-baseline="alphabetic" stroke-opacity="1" stroke-linejoin="bevel" stroke-miterlimit="10" stroke-width="3">p1</text><text fill="rgb(192,192,192)" stroke="none" font-family="geogebra-sans-serif, sans-serif" font-size="16px" font-style="normal" font-weight="normal" text-decoration="normal" x="359" y="250" text-anchor="start" dominant-baseline="alphabetic" fill-opacity="1">p1</text><path fill="rgb(192,192,192)" stroke="none" paint-order="stroke fill markers" d=" M 659.8227864827367 310.49877058394264 L 660.5503933578457 313.40919808437866 L 219.32674386507742 423.7151104575707 C 218.6570002300862 423.8825463663185 218.24979936244338 424.56121447905656 218.4172352711912 425.2309581140478 C 218.55922775817643 425.79892806198865 219.06888477026342 426.17808427495214 219.62896884414167 426.17808427495214 C 219.72932947319157 426.17808427495214 219.83130924061788 426.16591012969656 219.93308292766827 426.14046670793397 L 219.93308292766824 426.14046670793397 L 661.1567324204364 315.834554334742 L 661.1567324204366 315.834554334742 L 661.8843392955456 318.74498183517795 L 677.3459853916117 310.49877058394264 Z" fill-opacity="0.6980392156862745"/><text fill="rgb(192,192,192)" stroke="none" font-family="geogebra-sans-serif, sans-serif" font-size="16px" font-style="normal" font-weight="normal" text-decoration="normal" x="447" y="363" text-anchor="start" dominant-baseline="alphabetic" fill-opacity="1">p2</text><text fill="none" stroke="rgb(255,255,255)" font-family="geogebra-sans-serif, sans-serif" font-size="16px" font-style="normal" font-weight="normal" text-decoration="normal" x="447" y="363" text-anchor="start" dominant-baseline="alphabetic" stroke-opacity="1" stroke-linejoin="bevel" stroke-miterlimit="10" stroke-width="3">p2</text><text fill="rgb(192,192,192)" stroke="none" font-family="geogebra-sans-serif, sans-serif" font-size="16px" font-style="normal" font-weight="normal" text-decoration="normal" x="447" y="363" text-anchor="start" dominant-baseline="alphabetic" fill-opacity="1">p2</text><path fill="rgb(102,204,255)" stroke="none" paint-order="stroke fill markers" d=" M 505.70245839339714 81.64073458632325 L 512.5024583933972 97.79073458632321 L 514.9024583933972 95.99073458632321 L 676.3459853916117 311.24877058394264 C 676.591553276324 311.57619443022566 676.9669167257375 311.74884414862566 677.3469466062337 311.74884414862566 C 677.607935117833 311.74884414862566 677.871124488064 311.6674162616035 678.0959853916117 311.49877058394264 C 678.6482701414426 311.08455702156954 678.7601989539849 310.30105533377343 678.3459853916117 309.74877058394264 L 516.9024583933972 94.49073458632321 L 519.3024583933972 92.69073458632322 L 505.7024583933972 81.64073458632325 Z" fill-opacity="0.6980392156862745"/><text fill="rgb(102,204,255)" stroke="none" font-family="geogebra-sans-serif, sans-serif" font-size="16px" font-style="normal" font-weight="normal" text-decoration="normal" x="588" y="198" text-anchor="start" dominant-baseline="alphabetic" fill-opacity="1">p1 - p2</text><text fill="none" stroke="rgb(255,255,255)" font-family="geogebra-sans-serif, sans-serif" font-size="16px" font-style="normal" font-weight="normal" text-decoration="normal" x="588" y="198" text-anchor="start" dominant-baseline="alphabetic" stroke-opacity="1" stroke-linejoin="bevel" stroke-miterlimit="10" stroke-width="3">p1 - p2</text><text fill="rgb(102,204,255)" stroke="none" font-family="geogebra-sans-serif, sans-serif" font-size="16px" font-style="normal" font-weight="normal" text-decoration="normal" x="588" y="198" text-anchor="start" dominant-baseline="alphabetic" fill-opacity="1">p1 - p2</text><path fill="rgb(160,160,160)" stroke="none" paint-order="stroke fill markers" d=" M 263 163 L 256.0300357191067 179.07737845306477 L 258.98973723162516 179.5674467715634 L 258.9897372316251 179.5674467715634 L 218.3967044328235 424.7235934500446 C 218.28393057503934 425.4046759539675 218.74463575974215 426.0482236885175 219.4257182636651 426.1609975463017 C 219.49484519528175 426.1724436056415 219.5635854672393 426.1779820434669 219.63142337592822 426.1779820434669 C 220.2319676972932 426.1779820434669 220.7617945614778 425.74393928776635 220.8631223599222 425.1319837154601 L 261.45615515872385 179.97583703697893 L 261.45615515872396 179.97583703697893 L 264.41585667124207 180.4659053554775 L 264.41585667124224 180.4659053554775 L 263 163 Z" fill-opacity="0.6980392156862745"/><text fill="rgb(160,160,160)" stroke="none" font-family="geogebra-sans-serif, sans-serif" font-size="16px" font-style="normal" font-weight="normal" text-decoration="normal" x="237" y="293" text-anchor="start" dominant-baseline="alphabetic" fill-opacity="1">xy</text><text fill="none" stroke="rgb(255,255,255)" font-family="geogebra-sans-serif, sans-serif" font-size="16px" font-style="normal" font-weight="normal" text-decoration="normal" x="237" y="293" text-anchor="start" dominant-baseline="alphabetic" stroke-opacity="1" stroke-linejoin="bevel" stroke-miterlimit="10" stroke-width="3">xy</text><text fill="rgb(160,160,160)" stroke="none" font-family="geogebra-sans-serif, sans-serif" font-size="16px" font-style="normal" font-weight="normal" text-decoration="normal" x="237" y="293" text-anchor="start" dominant-baseline="alphabetic" fill-opacity="1">xy</text><path fill="rgb(153,102,255)" stroke="none" paint-order="stroke fill markers" d=" M 263 163 L 277.5902055743496 172.70507090639816 L 278.59629878062964 169.87880544464883 L 676.926779888995 311.6763811930049 C 677.0653427445085 311.72570676042295 677.2068352127194 311.7491112097315 677.3459584668465 311.7491112097315 C 677.8598419521121 311.7491112097315 678.3414007619517 311.4297896116699 678.5235960006739 310.91797608655935 C 678.7551168068143 310.2675997059353 678.4155672748525 309.55268078102074 677.7651908942285 309.3211599748804 L 279.43470978586294 167.52358422652435 L 280.44080299214295 164.69731876477502 L 263 163 Z" fill-opacity="0.6980392156862745"/><text fill="rgb(153,102,255)" stroke="none" font-family="geogebra-sans-serif, sans-serif" font-size="16px" font-style="normal" font-weight="normal" text-decoration="normal" x="468" y="240" text-anchor="start" dominant-baseline="alphabetic" fill-opacity="1">xy - p2</text><text fill="none" stroke="rgb(255,255,255)" font-family="geogebra-sans-serif, sans-serif" font-size="16px" font-style="normal" font-weight="normal" text-decoration="normal" x="468" y="240" text-anchor="start" dominant-baseline="alphabetic" stroke-opacity="1" stroke-linejoin="bevel" stroke-miterlimit="10" stroke-width="3">xy - p2</text><text fill="rgb(153,102,255)" stroke="none" font-family="geogebra-sans-serif, sans-serif" font-size="16px" font-style="normal" font-weight="normal" text-decoration="normal" x="468" y="240" text-anchor="start" dominant-baseline="alphabetic" fill-opacity="1">xy - p2</text><path fill="rgb(255,127,0)" stroke="none" paint-order="stroke fill markers" d=" M 265.4015205958967 390.5990831831094 L 248.30152059589673 397.7990831831094 L 250.10152059589674 400.19908318310945 L 250.10152059589672 400.19908318310945 L 218.72991339637284 423.72778858275234 C 218.06717169657588 424.22484485760003 217.93285712152513 425.1650468829554 218.42991339637285 425.8277885827523 C 218.7245948580276 426.22069719829193 219.17503099732383 426.4278768603719 219.6310668539193 426.42787686037195 C 219.94425306783842 426.42787686037195 220.26008031211555 426.3301633959453 220.52991339637285 426.1277885827523 L 251.90152059589664 402.5990831831095 L 251.90152059589676 402.5990831831095 L 253.7015205958967 404.99908318310946 L 265.4015205958967 390.5990831831094 Z" fill-opacity="0.6980392156862745"/><path fill="rgb(255,127,0)" stroke="none" paint-order="stroke fill markers" d=" M 308.7716071995238 128.67129460035713 L 291.6716071995239 135.87129460035712 L 293.47160719952393 138.27129460035715 L 293.4716071995239 138.27129460035715 L 262.1 161.8 C 261.4372583002031 162.2970562748477 261.3029437251523 163.23725830020302 261.8 163.89999999999998 C 262.0946814616547 164.29290861553963 262.54511760095096 164.5000882776196 263.00115345754637 164.5000882776196 C 263.3143396714655 164.5000882776196 263.6301669157427 164.40237481319295 263.9 164.2 L 295.2716071995239 140.6712946003571 L 297.0716071995239 143.0712946003571 L 308.7716071995239 128.67129460035713 Z" fill-opacity="0.6980392156862745"/><text fill="rgb(255,127,0)" stroke="none" font-family="geogebra-sans-serif, sans-serif" font-size="16px" font-style="normal" font-weight="normal" text-decoration="normal" x="283" y="142" text-anchor="start" dominant-baseline="alphabetic" fill-opacity="1">per</text><text fill="none" stroke="rgb(255,255,255)" font-family="geogebra-sans-serif, sans-serif" font-size="16px" font-style="normal" font-weight="normal" text-decoration="normal" x="283" y="142" text-anchor="start" dominant-baseline="alphabetic" stroke-opacity="1" stroke-linejoin="bevel" stroke-miterlimit="10" stroke-width="3">per</text><text fill="rgb(255,127,0)" stroke="none" font-family="geogebra-sans-serif, sans-serif" font-size="16px" font-style="normal" font-weight="normal" text-decoration="normal" x="283" y="142" text-anchor="start" dominant-baseline="alphabetic" fill-opacity="1">per</text><path fill="rgb(153,102,255)" stroke="none" paint-order="stroke fill markers" d=" M 505.70261708701435 80.39039517394939 C 505.57089876902023 80.39039517394939 505.4369359253408 80.4113793702826 505.30515941404224 80.45555378956537 L 278.7211598565519 156.41155308401588 L 277.7676423061002 153.56711917179703 L 263 163 L 280.4692753657134 161.62634858975045 L 279.5157578152617 158.7819146775316 L 506.09975737275204 82.82591538308107 C 506.75431465259373 82.60649321566002 507.107061357576 81.89799288680999 506.88763919015497 81.24343560696832 C 506.71239144201667 80.7206548384252 506.22516699240805 80.39039517394939 505.70261708701435 80.39039517394939 Z" fill-opacity="0.6980392156862745"/><text fill="rgb(153,102,255)" stroke="none" font-family="geogebra-sans-serif, sans-serif" font-size="16px" font-style="normal" font-weight="normal" text-decoration="normal" x="385" y="126" text-anchor="start" dominant-baseline="alphabetic" fill-opacity="1">xy - p1</text><text fill="none" stroke="rgb(255,255,255)" font-family="geogebra-sans-serif, sans-serif" font-size="16px" font-style="normal" font-weight="normal" text-decoration="normal" x="385" y="126" text-anchor="start" dominant-baseline="alphabetic" stroke-opacity="1" stroke-linejoin="bevel" stroke-miterlimit="10" stroke-width="3">xy - p1</text><text fill="rgb(153,102,255)" stroke="none" font-family="geogebra-sans-serif, sans-serif" font-size="16px" font-style="normal" font-weight="normal" text-decoration="normal" x="385" y="126" text-anchor="start" dominant-baseline="alphabetic" fill-opacity="1">xy - p1</text><path fill="rgb(204,204,255)" stroke="none" paint-order="stroke fill markers" d=" M 457.38202077033895 17.213484422245642 L 441.2320207703389 24.01348442224565 L 443.03202077033893 26.41348442224566 L 438.6499999999999 29.699999999999903 L 440.1499999999999 31.699999999999903 L 444.53202077033893 28.41348442224566 L 446.33202077033894 30.813484422245647 L 457.38202077033895 17.213484422245642 Z M 435.44999999999993 32.09999999999991 L 430.24999999999994 35.999999999999915 L 431.74999999999994 37.999999999999915 L 436.94999999999993 34.09999999999991 L 435.44999999999993 32.09999999999991 Z M 427.04999999999995 38.399999999999906 L 421.8499999999999 42.299999999999926 L 423.3499999999999 44.299999999999926 L 428.54999999999995 40.399999999999906 L 427.04999999999995 38.399999999999906 Z M 418.65 44.69999999999992 L 413.44999999999993 48.59999999999992 L 414.94999999999993 50.59999999999992 L 420.15 46.69999999999992 L 418.65 44.69999999999992 Z M 410.24999999999994 50.999999999999915 L 405.04999999999995 54.899999999999935 L 406.54999999999995 56.899999999999935 L 411.74999999999994 52.999999999999915 L 410.24999999999994 50.999999999999915 Z M 401.8499999999999 57.299999999999926 L 396.65 61.19999999999993 L 398.15 63.19999999999993 L 403.3499999999999 59.299999999999926 L 401.8499999999999 57.299999999999926 Z M 393.44999999999993 63.59999999999992 L 388.24999999999994 67.49999999999993 L 389.74999999999994 69.49999999999993 L 394.94999999999993 65.59999999999992 L 393.44999999999993 63.59999999999992 Z M 385.04999999999995 69.89999999999995 L 379.84999999999997 73.79999999999994 L 381.34999999999997 75.79999999999994 L 386.54999999999995 71.89999999999995 L 385.04999999999995 69.89999999999995 Z M 376.65 76.19999999999995 L 371.44999999999993 80.09999999999994 L 372.94999999999993 82.09999999999994 L 378.15 78.19999999999995 L 376.65 76.19999999999995 Z M 368.24999999999994 82.49999999999996 L 363.04999999999995 86.39999999999995 L 364.54999999999995 88.39999999999995 L 369.74999999999994 84.49999999999996 L 368.24999999999994 82.49999999999996 Z M 359.84999999999997 88.79999999999995 L 354.65 92.69999999999995 L 356.15 94.69999999999995 L 361.34999999999997 90.79999999999995 L 359.84999999999997 88.79999999999995 Z M 351.44999999999993 95.09999999999995 L 346.25 98.99999999999996 L 347.75 100.99999999999996 L 352.94999999999993 97.09999999999995 L 351.44999999999993 95.09999999999995 Z M 343.04999999999995 101.39999999999996 L 337.84999999999997 105.29999999999995 L 339.34999999999997 107.29999999999995 L 344.54999999999995 103.39999999999996 L 343.04999999999995 101.39999999999996 Z M 334.65 107.69999999999996 L 329.45 111.59999999999997 L 330.95 113.59999999999997 L 336.15 109.69999999999996 L 334.65 107.69999999999996 Z M 326.25 113.99999999999997 L 321.04999999999995 117.89999999999998 L 322.54999999999995 119.89999999999998 L 327.75 115.99999999999997 L 326.25 113.99999999999997 Z M 317.84999999999997 120.29999999999997 L 312.65 124.19999999999997 L 314.15 126.19999999999997 L 319.34999999999997 122.29999999999997 L 317.84999999999997 120.29999999999997 Z M 309.45 126.59999999999997 L 304.25 130.49999999999997 L 305.75 132.49999999999997 L 310.95 128.59999999999997 L 309.45 126.59999999999997 Z M 301.05 132.89999999999998 L 295.84999999999997 136.79999999999998 L 297.34999999999997 138.79999999999998 L 302.55 134.89999999999998 L 301.05 132.89999999999998 Z M 292.65 139.2 L 287.45 143.1 L 288.95 145.1 L 294.15 141.2 L 292.65 139.2 Z M 284.25 145.5 L 279.05 149.39999999999998 L 280.55 151.39999999999998 L 285.75 147.5 L 284.25 145.5 Z M 275.85 151.79999999999998 L 270.65 155.7 L 272.15 157.7 L 277.35 153.79999999999998 L 275.85 151.79999999999998 Z M 267.45 158.1 L 262.25 162 L 263.75 164 L 268.95 160.1 L 267.45 158.1 Z" fill-opacity="1"/><text fill="rgb(204,204,255)" stroke="none" font-family="geogebra-sans-serif, sans-serif" font-size="16px" font-style="normal" font-weight="normal" text-decoration="normal" x="357" y="86" text-anchor="start" dominant-baseline="alphabetic" fill-opacity="1">dist</text><text fill="none" stroke="rgb(255,255,255)" font-family="geogebra-sans-serif, sans-serif" font-size="16px" font-style="normal" font-weight="normal" text-decoration="normal" x="357" y="86" text-anchor="start" dominant-baseline="alphabetic" stroke-opacity="1" stroke-linejoin="bevel" stroke-miterlimit="10" stroke-width="3">dist</text><text fill="rgb(204,204,255)" stroke="none" font-family="geogebra-sans-serif, sans-serif" font-size="16px" font-style="normal" font-weight="normal" text-decoration="normal" x="357" y="86" text-anchor="start" dominant-baseline="alphabetic" fill-opacity="1">dist</text><path fill="rgb(204,204,255)" stroke="none" paint-order="stroke fill markers" d=" M 264 162.25 L 262 163.75 L 265.9 168.95 L 267.9 167.45 L 264 162.25 Z M 270.3 170.65 L 268.3 172.15 L 272.2 177.35 L 274.2 175.85 L 270.3 170.65 Z M 276.6 179.05 L 274.6 180.55 L 278.5 185.75 L 280.5 184.25 L 276.6 179.05 Z M 282.90000000000003 187.45 L 280.90000000000003 188.95 L 284.8 194.15 L 286.8 192.65 L 282.90000000000003 187.45 Z M 289.2 195.85 L 287.2 197.35 L 291.1 202.54999999999998 L 293.1 201.04999999999998 L 289.2 195.85 Z M 295.5 204.25 L 293.5 205.75 L 297.40000000000003 210.95 L 299.40000000000003 209.45 L 295.5 204.25 Z M 304.52043762305817 211.27725016407754 L 302.1204376230582 213.07725016407755 L 301.8 212.64999999999998 L 299.8 214.14999999999998 L 300.1204376230582 214.57725016407755 L 297.7204376230582 216.37725016407757 L 311.3204376230582 227.42725016407755 L 304.52043762305817 211.27725016407754 Z" fill-opacity="1"/><path fill="rgb(97,97,97)" stroke="none" paint-order="stroke fill markers" d=" M 224.62991339637284 424.9277885827523 C 224.62991339637284 427.6892123319063 222.39133714552682 429.9277885827523 219.62991339637284 429.9277885827523 C 216.86848964721887 429.9277885827523 214.62991339637284 427.6892123319063 214.62991339637284 424.9277885827523 C 214.62991339637284 422.1663648335984 216.86848964721887 419.9277885827523 219.62991339637284 419.9277885827523 C 222.39133714552682 419.9277885827523 224.62991339637284 422.1663648335984 224.62991339637284 424.9277885827523 Z" fill-opacity="1"/><text fill="rgb(97,97,97)" stroke="none" font-family="geogebra-sans-serif, sans-serif" font-size="16px" font-style="normal" font-weight="normal" text-decoration="normal" x="224" y="415" text-anchor="start" dominant-baseline="alphabetic" fill-opacity="1">O</text><text fill="none" stroke="rgb(255,255,255)" font-family="geogebra-sans-serif, sans-serif" font-size="16px" font-style="normal" font-weight="normal" text-decoration="normal" x="224" y="415" text-anchor="start" dominant-baseline="alphabetic" stroke-opacity="1" stroke-linejoin="bevel" stroke-miterlimit="10" stroke-width="3">O</text><text fill="rgb(97,97,97)" stroke="none" font-family="geogebra-sans-serif, sans-serif" font-size="16px" font-style="normal" font-weight="normal" text-decoration="normal" x="224" y="415" text-anchor="start" dominant-baseline="alphabetic" fill-opacity="1">O</text><path fill="rgb(102,204,255)" stroke="none" paint-order="stroke fill markers" d=" M 510.70245839339714 81.64073458632322 C 510.70245839339714 84.40215833547718 508.4638821425511 86.64073458632322 505.70245839339714 86.64073458632322 C 502.9410346442432 86.64073458632322 500.70245839339714 84.40215833547718 500.70245839339714 81.64073458632322 C 500.70245839339714 78.87931083716926 502.9410346442432 76.64073458632322 505.70245839339714 76.64073458632322 C 508.4638821425511 76.64073458632322 510.70245839339714 78.87931083716926 510.70245839339714 81.64073458632322 Z" fill-opacity="1"/><text fill="rgb(102,204,255)" stroke="none" font-family="geogebra-sans-serif, sans-serif" font-size="16px" font-style="normal" font-weight="normal" text-decoration="normal" x="510" y="72" text-anchor="start" dominant-baseline="alphabetic" fill-opacity="1">p1</text><text fill="none" stroke="rgb(255,255,255)" font-family="geogebra-sans-serif, sans-serif" font-size="16px" font-style="normal" font-weight="normal" text-decoration="normal" x="510" y="72" text-anchor="start" dominant-baseline="alphabetic" stroke-opacity="1" stroke-linejoin="bevel" stroke-miterlimit="10" stroke-width="3">p1</text><text fill="rgb(102,204,255)" stroke="none" font-family="geogebra-sans-serif, sans-serif" font-size="16px" font-style="normal" font-weight="normal" text-decoration="normal" x="510" y="72" text-anchor="start" dominant-baseline="alphabetic" fill-opacity="1">p1</text><path fill="rgb(102,204,255)" stroke="none" paint-order="stroke fill markers" d=" M 682.3459853916117 310.49877058394264 C 682.3459853916117 313.2601943330966 680.1074091407658 315.49877058394264 677.3459853916117 315.49877058394264 C 674.5845616424577 315.49877058394264 672.3459853916117 313.2601943330966 672.3459853916117 310.49877058394264 C 672.3459853916117 307.7373468347887 674.5845616424577 305.49877058394264 677.3459853916117 305.49877058394264 C 680.1074091407658 305.49877058394264 682.3459853916117 307.7373468347887 682.3459853916117 310.49877058394264 Z" fill-opacity="1"/><text fill="rgb(102,204,255)" stroke="none" font-family="geogebra-sans-serif, sans-serif" font-size="16px" font-style="normal" font-weight="normal" text-decoration="normal" x="681" y="300" text-anchor="start" dominant-baseline="alphabetic" fill-opacity="1">p2</text><text fill="none" stroke="rgb(255,255,255)" font-family="geogebra-sans-serif, sans-serif" font-size="16px" font-style="normal" font-weight="normal" text-decoration="normal" x="681" y="300" text-anchor="start" dominant-baseline="alphabetic" stroke-opacity="1" stroke-linejoin="bevel" stroke-miterlimit="10" stroke-width="3">p2</text><text fill="rgb(102,204,255)" stroke="none" font-family="geogebra-sans-serif, sans-serif" font-size="16px" font-style="normal" font-weight="normal" text-decoration="normal" x="681" y="300" text-anchor="start" dominant-baseline="alphabetic" fill-opacity="1">p2</text><path fill="rgb(255,102,153)" stroke="none" paint-order="stroke fill markers" d=" M 268 163 C 268 165.76142374915398 265.76142374915395 168 263 168 C 260.23857625084605 168 258 165.76142374915398 258 163 C 258 160.23857625084602 260.23857625084605 158 263 158 C 265.76142374915395 158 268 160.23857625084602 268 163 Z" fill-opacity="1"/><text fill="rgb(255,102,153)" stroke="none" font-family="geogebra-sans-serif, sans-serif" font-size="16px" font-style="normal" font-weight="normal" text-decoration="normal" x="267" y="153" text-anchor="start" dominant-baseline="alphabetic" fill-opacity="1">xy</text><text fill="none" stroke="rgb(255,255,255)" font-family="geogebra-sans-serif, sans-serif" font-size="16px" font-style="normal" font-weight="normal" text-decoration="normal" x="267" y="153" text-anchor="start" dominant-baseline="alphabetic" stroke-opacity="1" stroke-linejoin="bevel" stroke-miterlimit="10" stroke-width="3">xy</text><text fill="rgb(255,102,153)" stroke="none" font-family="geogebra-sans-serif, sans-serif" font-size="16px" font-style="normal" font-weight="normal" text-decoration="normal" x="267" y="153" text-anchor="start" dominant-baseline="alphabetic" fill-opacity="1">xy</text></g></g></svg>