<svg xmlns="http://www.w3.org/2000/svg" xmlns:xlink="http://www.w3.org/1999/xlink" version="1.1" viewBox="214.63 56.5 488.74 400.37"><defs><clipPath id="kLclNBoftado"><path fill="none" stroke="none" d=" M 0 0 L 1044 0 L 1044 621 L 0 621 L 0 0 Z"/></clipPath></defs><g transform="scale(1,1)" clip-path="url(#kLclNBoftado)"><g><path fill="rgb(153,255,0)" stroke="none" paint-order="stroke fill markers" d=" M 493.7730478060408 109.16688874992309 C 503.65888751491366 113.45125917766296 515.0830140786262 112.10531782240139 523.7024583933971 105.64073458632316 L 505.70245839339714 81.64073458632316 Z" fill-opacity="0.5294117647058824"/><path fill="none" stroke="rgb(153,255,0)" paint-order="fill stroke markers" d=" M 493.7730478060408 109.16688874992309 C 503.65888751491366 113.45125917766296 515.0830140786262 112.10531782240139 523.7024583933971 105.64073458632316 L 505.70245839339714 81.64073458632316 Z" stroke-opacity="0.6" stroke-linecap="round" stroke-linejoin="round" stroke-miterlimit="10" stroke-width="2.5"/><path fill="rgb(153,255,0)" stroke="none" paint-order="stroke fill markers" d=" M 659.3459853916117 286.4987705839426 C 650.797601006759 292.9100588725821 646.3046556382874 303.3843246985188 647.5506334223462 313.996913094988 L 677.3459853916117 310.4987705839426 Z" fill-opacity="0.5372549019607843"/><path fill="none" stroke="rgb(153,255,0)" paint-order="fill stroke markers" d=" M 659.3459853916117 286.4987705839426 C 650.797601006759 292.9100588725821 646.3046556382874 303.3843246985188 647.5506334223462 313.996913094988 L 677.3459853916117 310.4987705839426 Z" stroke-opacity="0.6" stroke-linecap="round" stroke-linejoin="round" stroke-miterlimit="10" stroke-width="2.5"/><path fill="none" stroke="rgb(255,204,51)" paint-order="fill stroke markers" d=" M 567.4941281127544 164.02962754546616 L 559.0088467385165 152.71591904648216 L 547.695138239531 161.20120042071997 L 556.1804196137705 172.51490891970417 L 567.4941281127544 164.02962754546616" stroke-opacity="0.6" stroke-linecap="round" stroke-linejoin="round" stroke-miterlimit="10" stroke-width="1.5"/><path fill="none" stroke="rgb(255,204,51)" paint-order="fill stroke markers" d=" M 219.62991339637284 424.92778858275227 L 567.4941281127544 164.02962754546616" stroke-opacity="1" stroke-linejoin="round" stroke-miterlimit="10" stroke-width="2" stroke-dasharray="2,3"/><path fill="none" stroke="rgb(255,204,51)" paint-order="fill stroke markers" d=" M 242.83780605395745 455.8716454595318 L 590.7020207703391 194.97348442224575" stroke-opacity="1" stroke-linejoin="round" stroke-miterlimit="10" stroke-width="2" stroke-dasharray="2,3"/><path fill="rgb(192,192,192)" stroke="none" paint-order="stroke fill markers" d=" M 505.70245839339714 81.64073458632316 L 491.5543831608121 91.97971264090451 L 493.8590469996043 93.90026583989797 L 218.66963679687615 424.12755808317166 L 218.66963679687612 424.12755808317166 C 218.22768169560828 424.65790420469307 218.29933677527083 425.4461100809811 218.82968289679224 425.88806518224897 C 219.0633659531025 426.08280106250754 219.34711228010337 426.1778199258914 219.62924218939594 426.1778199258914 C 219.9874090372625 426.1778199258914 220.34297077486028 426.024682147544 220.59018999586957 425.7280190823329 L 495.7796001985977 95.50072683905914 L 498.08426403738986 97.42128003805259 L 505.70245839339714 81.64073458632316 Z" fill-opacity="0.6980392156862745"/><text fill="rgb(192,192,192)" stroke="none" font-family="geogebra-sans-serif, sans-serif" font-size="16px" font-style="normal" font-weight="normal" text-decoration="normal" x="359" y="250" text-anchor="start" dominant-baseline="alphabetic" fill-opacity="1">p1</text><text fill="none" stroke="rgb(255,255,255)" font-family="geogebra-sans-serif, sans-serif" font-size="16px" font-style="normal" font-weight="normal" text-decoration="normal" x="359" y="250" text-anchor="start" dominant-baseline="alphabetic" stroke-opacity="1" stroke-linejoin="bevel" stroke-miterlimit="10" stroke-width="3">p1</text><text fill="rgb(192,192,192)" stroke="none" font-family="geogebra-sans-serif, sans-serif" font-size="16px" font-style="normal" font-weight="normal" text-decoration="normal" x="359" y="250" text-anchor="start" dominant-baseline="alphabetic" fill-opacity="1">p1</text><path fill="rgb(192,192,192)" stroke="none" paint-order="stroke fill markers" d=" M 659.8227864827367 310.4987705839426 L 660.5503933578457 313.4091980843786 L 219.32674386507742 423.71511045757063 C 218.6570002300862 423.8825463663184 218.24979936244338 424.56121447905645 218.4172352711912 425.23095811404767 C 218.55922775817643 425.79892806198853 219.06888477026342 426.1780842749521 219.6289688441417 426.1780842749521 C 219.7293294731916 426.1780842749521 219.8313092406179 426.1659101296965 219.93308292766827 426.1404667079339 L 219.93308292766824 426.1404667079339 L 661.1567324204364 315.83455433474194 L 661.1567324204366 315.83455433474194 L 661.8843392955456 318.7449818351779 L 677.3459853916117 310.4987705839426 Z" fill-opacity="0.6980392156862745"/><text fill="rgb(192,192,192)" stroke="none" font-family="geogebra-sans-serif, sans-serif" font-size="16px" font-style="normal" font-weight="normal" text-decoration="normal" x="447" y="363" text-anchor="start" dominant-baseline="alphabetic" fill-opacity="1">p2</text><text fill="none" stroke="rgb(255,255,255)" font-family="geogebra-sans-serif, sans-serif" font-size="16px" font-style="normal" font-weight="normal" text-decoration="normal" x="447" y="363" text-anchor="start" dominant-baseline="alphabetic" stroke-opacity="1" stroke-linejoin="bevel" stroke-miterlimit="10" stroke-width="3">p2</text><text fill="rgb(192,192,192)" stroke="none" font-family="geogebra-sans-serif, sans-serif" font-size="16px" font-style="normal" font-weight="normal" text-decoration="normal" x="447" y="363" text-anchor="start" dominant-baseline="alphabetic" fill-opacity="1">p2</text><path fill="rgb(102,204,255)" stroke="none" paint-order="stroke fill markers" d=" M 505.70245839339714 81.64073458632318 L 512.5024583933972 97.79073458632315 L 514.9024583933972 95.99073458632317 L 676.3459853916117 311.2487705839426 C 676.591553276324 311.5761944302256 676.9669167257375 311.7488441486256 677.3469466062337 311.7488441486256 C 677.607935117833 311.7488441486256 677.871124488064 311.6674162616034 678.0959853916117 311.4987705839426 C 678.6482701414426 311.0845570215695 678.7601989539849 310.3010553337734 678.3459853916117 309.7487705839426 L 516.9024583933972 94.49073458632316 L 519.3024583933972 92.69073458632316 L 505.70245839339714 81.64073458632318 Z" fill-opacity="0.6980392156862745"/><text fill="rgb(102,204,255)" stroke="none" font-family="geogebra-sans-serif, sans-serif" font-size="16px" font-style="normal" font-weight="normal" text-decoration="normal" x="588" y="198" text-anchor="start" dominant-baseline="alphabetic" fill-opacity="1">p1 - p2</text><text fill="none" stroke="rgb(255,255,255)" font-family="geogebra-sans-serif, sans-serif" font-size="16px" font-style="normal" font-weight="normal" text-decoration="normal" x="588" y="198" text-anchor="start" dominant-baseline="alphabetic" stroke-opacity="1" stroke-linejoin="bevel" stroke-miterlimit="10" stroke-width="3">p1 - p2</text><text fill="rgb(102,204,255)" stroke="none" font-family="geogebra-sans-serif, sans-serif" font-size="16px" font-style="normal" font-weight="normal" text-decoration="normal" x="588" y="198" text-anchor="start" dominant-baseline="alphabetic" fill-opacity="1">p1 - p2</text><path fill="rgb(160,160,160)" stroke="none" paint-order="stroke fill markers" d=" M 392 344 L 374.80542774437174 347.3777485024761 L 376.08039935401325 350.09334188047075 L 376.08039935401314 350.09334188047075 L 219.09867522568888 423.7962913419212 C 218.47376655510226 424.08968608211796 218.205021415345 424.83411808284956 218.49841615554175 425.4590267534362 C 218.71118689909835 425.9122123913468 219.16116687918188 426.1780847258586 219.63074525170504 426.17808472585864 C 219.8086798892203 426.17808472585864 219.9894285343808 426.1399098202235 220.1611515670568 426.05928582358337 L 377.1428756953811 352.3563363621329 L 378.41784730502263 355.0719297401275 L 392 344 Z" fill-opacity="0.6980392156862745"/><text fill="rgb(160,160,160)" stroke="none" font-family="geogebra-sans-serif, sans-serif" font-size="16px" font-style="normal" font-weight="normal" text-decoration="normal" x="304" y="380" text-anchor="start" dominant-baseline="alphabetic" fill-opacity="1">xy</text><text fill="none" stroke="rgb(255,255,255)" font-family="geogebra-sans-serif, sans-serif" font-size="16px" font-style="normal" font-weight="normal" text-decoration="normal" x="304" y="380" text-anchor="start" dominant-baseline="alphabetic" stroke-opacity="1" stroke-linejoin="bevel" stroke-miterlimit="10" stroke-width="3">xy</text><text fill="rgb(160,160,160)" stroke="none" font-family="geogebra-sans-serif, sans-serif" font-size="16px" font-style="normal" font-weight="normal" text-decoration="normal" x="304" y="380" text-anchor="start" dominant-baseline="alphabetic" fill-opacity="1">xy</text><path fill="rgb(153,102,255)" stroke="none" paint-order="stroke fill markers" d=" M 677.3475452467908 309.2486506972387 C 677.2988959330886 309.2486506972387 677.2497309569745 309.25148582930524 677.2002294536516 309.25729758522317 L 408.7382768446235 340.7762462450215 L 408.38846259351897 337.796711048095 L 391.99999999999994 344 L 409.37960297164807 346.2387274393868 L 409.3796029716485 346.2387274393868 L 409.029788720544 343.25919224246036 L 677.4917413295719 311.740243582662 C 678.1773879340914 311.65974480092933 678.6679571720639 311.03866125050183 678.5874583903312 310.3530146459824 C 678.5127713645165 309.7168695447859 677.9727388371008 309.2486506972387 677.3475452467908 309.2486506972387 Z" fill-opacity="0.6980392156862745"/><text fill="rgb(153,102,255)" stroke="none" font-family="geogebra-sans-serif, sans-serif" font-size="16px" font-style="normal" font-weight="normal" text-decoration="normal" x="535" y="331" text-anchor="start" dominant-baseline="alphabetic" fill-opacity="1">xy - p2</text><text fill="none" stroke="rgb(255,255,255)" font-family="geogebra-sans-serif, sans-serif" font-size="16px" font-style="normal" font-weight="normal" text-decoration="normal" x="535" y="331" text-anchor="start" dominant-baseline="alphabetic" stroke-opacity="1" stroke-linejoin="bevel" stroke-miterlimit="10" stroke-width="3">xy - p2</text><text fill="rgb(153,102,255)" stroke="none" font-family="geogebra-sans-serif, sans-serif" font-size="16px" font-style="normal" font-weight="normal" text-decoration="normal" x="535" y="331" text-anchor="start" dominant-baseline="alphabetic" fill-opacity="1">xy - p2</text><path fill="rgb(255,127,0)" stroke="none" paint-order="stroke fill markers" d=" M 265.4015205958966 390.5990831831094 L 248.30152059589673 397.79908318310936 L 250.10152059589674 400.1990831831094 L 250.10152059589672 400.1990831831094 L 218.72991339637284 423.7277885827523 C 218.06717169657588 424.2248448576 217.93285712152513 425.1650468829554 218.42991339637285 425.8277885827523 C 218.7245948580276 426.22069719829193 219.1750309973238 426.4278768603719 219.63106685391924 426.4278768603719 C 219.9442530678384 426.4278768603719 220.26008031211552 426.33016339594525 220.52991339637285 426.12778858275226 L 251.90152059589664 402.5990831831094 L 251.90152059589676 402.5990831831094 L 253.7015205958967 404.9990831831094 L 265.40152059589667 390.5990831831094 Z" fill-opacity="0.6980392156862745"/><path fill="rgb(255,127,0)" stroke="none" paint-order="stroke fill markers" d=" M 437.7716071995239 309.6712946003571 L 420.6716071995239 316.8712946003571 L 422.471607199524 319.2712946003572 L 422.4716071995239 319.2712946003572 L 391.1 342.8 C 390.4372583002031 343.2970562748477 390.3029437251523 344.23725830020305 390.8 344.9 C 391.0946814616547 345.2929086155396 391.545117600951 345.50008827761957 392.0011534575464 345.5000882776196 C 392.3143396714656 345.5000882776196 392.6301669157427 345.402374813193 392.9 345.2 L 424.2716071995238 321.67129460035716 L 424.27160719952394 321.67129460035716 L 426.0716071995239 324.07129460035713 L 437.7716071995239 309.6712946003571 Z" fill-opacity="0.6980392156862745"/><text fill="rgb(255,127,0)" stroke="none" font-family="geogebra-sans-serif, sans-serif" font-size="16px" font-style="normal" font-weight="normal" text-decoration="normal" x="412" y="323" text-anchor="start" dominant-baseline="alphabetic" fill-opacity="1">per</text><text fill="none" stroke="rgb(255,255,255)" font-family="geogebra-sans-serif, sans-serif" font-size="16px" font-style="normal" font-weight="normal" text-decoration="normal" x="412" y="323" text-anchor="start" dominant-baseline="alphabetic" stroke-opacity="1" stroke-linejoin="bevel" stroke-miterlimit="10" stroke-width="3">per</text><text fill="rgb(255,127,0)" stroke="none" font-family="geogebra-sans-serif, sans-serif" font-size="16px" font-style="normal" font-weight="normal" text-decoration="normal" x="412" y="323" text-anchor="start" dominant-baseline="alphabetic" fill-opacity="1">per</text><path fill="rgb(153,102,255)" stroke="none" paint-order="stroke fill markers" d=" M 505.70308084460135 80.39041652220003 C 505.2199579997351 80.39041652220003 504.759881792733 80.67216274494797 504.55553530324715 81.14367581184997 L 397.6130762426853 327.90478719948686 L 397.6130762426852 327.90478719948686 L 394.86046082632527 326.7118461407512 L 392 344 L 402.65953783934526 330.0918458071689 L 399.9069224229853 328.89890474843327 L 399.90692242298525 328.89890474843327 L 506.8493814835471 82.13779336079635 C 507.12389946445825 81.5043652288777 506.832945299789 80.76832947708431 506.19951716787034 80.49381149617318 C 506.03760210285367 80.4236400047479 505.8689826452694 80.39041652220003 505.70308084460135 80.39041652220003 Z" fill-opacity="0.6980392156862745"/><text fill="rgb(153,102,255)" stroke="none" font-family="geogebra-sans-serif, sans-serif" font-size="16px" font-style="normal" font-weight="normal" text-decoration="normal" x="452" y="214" text-anchor="start" dominant-baseline="alphabetic" fill-opacity="1">xy - p1</text><text fill="none" stroke="rgb(255,255,255)" font-family="geogebra-sans-serif, sans-serif" font-size="16px" font-style="normal" font-weight="normal" text-decoration="normal" x="452" y="214" text-anchor="start" dominant-baseline="alphabetic" stroke-opacity="1" stroke-linejoin="bevel" stroke-miterlimit="10" stroke-width="3">xy - p1</text><text fill="rgb(153,102,255)" stroke="none" font-family="geogebra-sans-serif, sans-serif" font-size="16px" font-style="normal" font-weight="normal" text-decoration="normal" x="452" y="214" text-anchor="start" dominant-baseline="alphabetic" fill-opacity="1">xy - p1</text><path fill="rgb(204,204,255)" stroke="none" paint-order="stroke fill markers" d=" M 590.702020770339 194.9734844222458 L 574.5520207703391 201.77348442224573 L 576.3520207703391 204.17348442224574 L 576.0500000000001 204.40000000000003 L 577.5500000000001 206.40000000000003 L 577.8520207703391 206.17348442224574 L 579.652020770339 208.57348442224574 L 590.7020207703391 194.9734844222458 Z M 572.85 206.8 L 567.6500000000001 210.70000000000002 L 569.1500000000001 212.70000000000002 L 574.35 208.8 L 572.85 206.8 Z M 564.45 213.10000000000002 L 559.25 217 L 560.75 219 L 565.95 215.10000000000002 L 564.45 213.10000000000002 Z M 556.0500000000001 219.40000000000003 L 550.85 223.3 L 552.35 225.3 L 557.5500000000001 221.40000000000003 L 556.0500000000001 219.40000000000003 Z M 547.6500000000001 225.70000000000002 L 542.45 229.60000000000002 L 543.95 231.60000000000002 L 549.1500000000001 227.70000000000002 L 547.6500000000001 225.70000000000002 Z M 539.25 232.00000000000003 L 534.0500000000001 235.90000000000003 L 535.5500000000001 237.90000000000003 L 540.75 234.00000000000003 L 539.25 232.00000000000003 Z M 530.85 238.3 L 525.6500000000001 242.20000000000002 L 527.1500000000001 244.20000000000002 L 532.35 240.3 L 530.85 238.3 Z M 522.45 244.60000000000002 L 517.25 248.50000000000003 L 518.75 250.50000000000003 L 523.95 246.60000000000002 L 522.45 244.60000000000002 Z M 514.0500000000001 250.9 L 508.85 254.8 L 510.35 256.8 L 515.5500000000001 252.9 L 514.0500000000001 250.9 Z M 505.65000000000003 257.20000000000005 L 500.45000000000005 261.1 L 501.95000000000005 263.1 L 507.15000000000003 259.20000000000005 L 505.65000000000003 257.20000000000005 Z M 497.25 263.5 L 492.05000000000007 267.4 L 493.55000000000007 269.4 L 498.75 265.5 L 497.25 263.5 Z M 488.85 269.8 L 483.65000000000003 273.70000000000005 L 485.15000000000003 275.70000000000005 L 490.35 271.8 L 488.85 269.8 Z M 480.45000000000005 276.1 L 475.25 280 L 476.75 282 L 481.95000000000005 278.1 L 480.45000000000005 276.1 Z M 472.05 282.4 L 466.85 286.3 L 468.35 288.3 L 473.55 284.4 L 472.05 282.4 Z M 463.65000000000003 288.7 L 458.45000000000005 292.6 L 459.95000000000005 294.6 L 465.15000000000003 290.7 L 463.65000000000003 288.7 Z M 455.25 295 L 450.05 298.9 L 451.55 300.9 L 456.75 297 L 455.25 295 Z M 446.85 301.3 L 441.65000000000003 305.2 L 443.15000000000003 307.2 L 448.35 303.3 L 446.85 301.3 Z M 438.45000000000005 307.6 L 433.25 311.5 L 434.75 313.5 L 439.95000000000005 309.6 L 438.45000000000005 307.6 Z M 430.05 313.9 L 424.85 317.8 L 426.35 319.8 L 431.55 315.9 L 430.05 313.9 Z M 421.65 320.2 L 416.45 324.1 L 417.95 326.1 L 423.15 322.2 L 421.65 320.2 Z M 413.25 326.5 L 408.05 330.4 L 409.55 332.4 L 414.75 328.5 L 413.25 326.5 Z M 404.85 332.8 L 399.65 336.7 L 401.15 338.7 L 406.35 334.8 L 404.85 332.8 Z M 396.45 339.1 L 391.25 343 L 392.75 345 L 397.95 341.1 L 396.45 339.1 Z" fill-opacity="1"/><text fill="rgb(204,204,255)" stroke="none" font-family="geogebra-sans-serif, sans-serif" font-size="16px" font-style="normal" font-weight="normal" text-decoration="normal" x="488" y="266" text-anchor="start" dominant-baseline="alphabetic" fill-opacity="1">dist</text><text fill="none" stroke="rgb(255,255,255)" font-family="geogebra-sans-serif, sans-serif" font-size="16px" font-style="normal" font-weight="normal" text-decoration="normal" x="488" y="266" text-anchor="start" dominant-baseline="alphabetic" stroke-opacity="1" stroke-linejoin="bevel" stroke-miterlimit="10" stroke-width="3">dist</text><text fill="rgb(204,204,255)" stroke="none" font-family="geogebra-sans-serif, sans-serif" font-size="16px" font-style="normal" font-weight="normal" text-decoration="normal" x="488" y="266" text-anchor="start" dominant-baseline="alphabetic" fill-opacity="1">dist</text><path fill="rgb(204,204,255)" stroke="none" paint-order="stroke fill markers" d=" M 307.0004376230581 230.66725016407742 L 313.8004376230581 246.81725016407736 L 320.60043762305804 241.71725016407734 L 307.00043762305813 230.66725016407742 Z M 319.8 245.64999999999998 L 317.8 247.14999999999998 L 321.70000000000005 252.34999999999997 L 323.70000000000005 250.84999999999997 L 319.8 245.64999999999998 Z M 326.1 254.04999999999995 L 324.1 255.54999999999995 L 328 260.75 L 330 259.25 L 326.1 254.04999999999995 Z M 332.40000000000003 262.45 L 330.40000000000003 263.95 L 334.3 269.15 L 336.3 267.65 L 332.40000000000003 262.45 Z M 338.70000000000005 270.84999999999997 L 336.70000000000005 272.34999999999997 L 340.6 277.54999999999995 L 342.6 276.04999999999995 L 338.70000000000005 270.84999999999997 Z M 345 279.25 L 343 280.75 L 346.90000000000003 285.95 L 348.90000000000003 284.45 L 345 279.25 Z M 351.3 287.65 L 349.3 289.15 L 353.2 294.34999999999997 L 355.2 292.84999999999997 L 351.3 287.65 Z M 357.6 296.04999999999995 L 355.6 297.54999999999995 L 359.5 302.75 L 361.5 301.25 L 357.6 296.04999999999995 Z M 363.90000000000003 304.45 L 361.90000000000003 305.95 L 365.8 311.15 L 367.8 309.65 L 363.90000000000003 304.45 Z M 370.2 312.85 L 368.2 314.35 L 372.1 319.55 L 374.1 318.05 L 370.2 312.85 Z M 376.5 321.25 L 374.5 322.75 L 378.4 327.95 L 380.4 326.45 L 376.5 321.25 Z M 382.8 329.65 L 380.8 331.15 L 384.7 336.35 L 386.7 334.85 L 382.8 329.65 Z M 389.1 338.05 L 387.1 339.55 L 391 344.75 L 393 343.25 L 389.1 338.05 Z" fill-opacity="1"/><path fill="rgb(97,97,97)" stroke="none" paint-order="stroke fill markers" d=" M 224.62991339637284 424.92778858275227 C 224.62991339637284 427.6892123319062 222.39133714552682 429.92778858275227 219.62991339637284 429.92778858275227 C 216.86848964721887 429.92778858275227 214.62991339637284 427.6892123319062 214.62991339637284 424.92778858275227 C 214.62991339637284 422.1663648335983 216.86848964721887 419.92778858275227 219.62991339637284 419.92778858275227 C 222.39133714552682 419.92778858275227 224.62991339637284 422.1663648335983 224.62991339637284 424.92778858275227 Z" fill-opacity="1"/><text fill="rgb(97,97,97)" stroke="none" font-family="geogebra-sans-serif, sans-serif" font-size="16px" font-style="normal" font-weight="normal" text-decoration="normal" x="224" y="415" text-anchor="start" dominant-baseline="alphabetic" fill-opacity="1">O</text><text fill="none" stroke="rgb(255,255,255)" font-family="geogebra-sans-serif, sans-serif" font-size="16px" font-style="normal" font-weight="normal" text-decoration="normal" x="224" y="415" text-anchor="start" dominant-baseline="alphabetic" stroke-opacity="1" stroke-linejoin="bevel" stroke-miterlimit="10" stroke-width="3">O</text><text fill="rgb(97,97,97)" stroke="none" font-family="geogebra-sans-serif, sans-serif" font-size="16px" font-style="normal" font-weight="normal" text-decoration="normal" x="224" y="415" text-anchor="start" dominant-baseline="alphabetic" fill-opacity="1">O</text><path fill="rgb(102,204,255)" stroke="none" paint-order="stroke fill markers" d=" M 510.70245839339714 81.64073458632316 C 510.70245839339714 84.40215833547713 508.4638821425511 86.64073458632316 505.70245839339714 86.64073458632316 C 502.9410346442432 86.64073458632316 500.70245839339714 84.40215833547713 500.70245839339714 81.64073458632316 C 500.70245839339714 78.8793108371692 502.9410346442432 76.64073458632316 505.70245839339714 76.64073458632316 C 508.4638821425511 76.64073458632316 510.70245839339714 78.8793108371692 510.70245839339714 81.64073458632316 Z" fill-opacity="1"/><text fill="rgb(102,204,255)" stroke="none" font-family="geogebra-sans-serif, sans-serif" font-size="16px" font-style="normal" font-weight="normal" text-decoration="normal" x="510" y="72" text-anchor="start" dominant-baseline="alphabetic" fill-opacity="1">p1</text><text fill="none" stroke="rgb(255,255,255)" font-family="geogebra-sans-serif, sans-serif" font-size="16px" font-style="normal" font-weight="normal" text-decoration="normal" x="510" y="72" text-anchor="start" dominant-baseline="alphabetic" stroke-opacity="1" stroke-linejoin="bevel" stroke-miterlimit="10" stroke-width="3">p1</text><text fill="rgb(102,204,255)" stroke="none" font-family="geogebra-sans-serif, sans-serif" font-size="16px" font-style="normal" font-weight="normal" text-decoration="normal" x="510" y="72" text-anchor="start" dominant-baseline="alphabetic" fill-opacity="1">p1</text><path fill="rgb(102,204,255)" stroke="none" paint-order="stroke fill markers" d=" M 682.3459853916117 310.4987705839426 C 682.3459853916117 313.26019433309654 680.1074091407658 315.4987705839426 677.3459853916117 315.4987705839426 C 674.5845616424577 315.4987705839426 672.3459853916117 313.26019433309654 672.3459853916117 310.4987705839426 C 672.3459853916117 307.73734683478864 674.5845616424577 305.4987705839426 677.3459853916117 305.4987705839426 C 680.1074091407658 305.4987705839426 682.3459853916117 307.73734683478864 682.3459853916117 310.4987705839426 Z" fill-opacity="1"/><text fill="rgb(102,204,255)" stroke="none" font-family="geogebra-sans-serif, sans-serif" font-size="16px" font-style="normal" font-weight="normal" text-decoration="normal" x="681" y="300" text-anchor="start" dominant-baseline="alphabetic" fill-opacity="1">p2</text><text fill="none" stroke="rgb(255,255,255)" font-family="geogebra-sans-serif, sans-serif" font-size="16px" font-style="normal" font-weight="normal" text-decoration="normal" x="681" y="300" text-anchor="start" dominant-baseline="alphabetic" stroke-opacity="1" stroke-linejoin="bevel" stroke-miterlimit="10" stroke-width="3">p2</text><text fill="rgb(102,204,255)" stroke="none" font-family="geogebra-sans-serif, sans-serif" font-size="16px" font-style="normal" font-weight="normal" text-decoration="normal" x="681" y="300" text-anchor="start" dominant-baseline="alphabetic" fill-opacity="1">p2</text><path fill="rgb(255,102,153)" stroke="none" paint-order="stroke fill markers" d=" M 397 344 C 397 346.76142374915395 394.76142374915395 349 392 349 C 389.23857625084605 349 387 346.76142374915395 387 344 C 387 341.23857625084605 389.23857625084605 339 392 339 C 394.76142374915395 339 397 341.23857625084605 397 344 Z" fill-opacity="1"/><text fill="rgb(255,102,153)" stroke="none" font-family="geogebra-sans-serif, sans-serif" font-size="16px" font-style="normal" font-weight="normal" text-decoration="normal" x="396" y="334" text-anchor="start" dominant-baseline="alphabetic" fill-opacity="1">xy</text><text fill="none" stroke="rgb(255,255,255)" font-family="geogebra-sans-serif, sans-serif" font-size="16px" font-style="normal" font-weight="normal" text-decoration="normal" x="396" y="334" text-anchor="start" dominant-baseline="alphabetic" stroke-opacity="1" stroke-linejoin="bevel" stroke-miterlimit="10" stroke-width="3">xy</text><text fill="rgb(255,102,153)" stroke="none" font-family="geogebra-sans-serif, sans-serif" font-size="16px" font-style="normal" font-weight="normal" text-decoration="normal" x="396" y="334" text-anchor="start" dominant-baseline="alphabetic" fill-opacity="1">xy</text></g></g></svg>