<svg xmlns="http://www.w3.org/2000/svg" xmlns:xlink="http://www.w3.org/1999/xlink" version="1.1" viewBox="214.63 56.5 513.75 570.5"><defs><clipPath id="nSiVFKJzxPkb"><path fill="none" stroke="none" d=" M 0 0 L 1044 0 L 1044 621 L 0 621 L 0 0 Z"/></clipPath></defs><g transform="scale(1,1)" clip-path="url(#nSiVFKJzxPkb)"><g><path fill="rgb(153,255,0)" stroke="none" paint-order="stroke fill markers" d=" M 509.0101739690536 111.45782729621965 C 514.3394503759022 110.8666318114881 519.4128841210565 108.8579152905786 523.7024583933971 105.64073458632316 L 505.70245839339714 81.64073458632316 Z" fill-opacity="0.5294117647058824"/><path fill="none" stroke="rgb(153,255,0)" paint-order="fill stroke markers" d=" M 509.0101739690536 111.45782729621965 C 514.3394503759022 110.8666318114881 519.4128841210565 108.8579152905786 523.7024583933971 105.64073458632316 L 505.70245839339714 81.64073458632316 Z" stroke-opacity="0.6" stroke-linecap="round" stroke-linejoin="round" stroke-miterlimit="10" stroke-width="2.5"/><path fill="rgb(153,255,0)" stroke="none" paint-order="stroke fill markers" d=" M 659.3459853916117 286.4987705839426 C 651.446361335024 292.42348862638335 646.9681668044973 301.85617363590643 647.3709537456482 311.72248534788275 C 647.7737406867992 321.58879705985913 653.0059202677321 330.62506119804084 661.3621985725373 335.88614065101297 L 677.3459853916117 310.4987705839426 Z" fill-opacity="0.5372549019607843"/><path fill="none" stroke="rgb(153,255,0)" paint-order="fill stroke markers" d=" M 659.3459853916117 286.4987705839426 C 651.446361335024 292.42348862638335 646.9681668044973 301.85617363590643 647.3709537456482 311.72248534788275 C 647.7737406867992 321.58879705985913 653.0059202677321 330.62506119804084 661.3621985725373 335.88614065101297 L 677.3459853916117 310.4987705839426 Z" stroke-opacity="0.6" stroke-linecap="round" stroke-linejoin="round" stroke-miterlimit="10" stroke-width="2.5"/><path fill="none" stroke="rgb(255,204,51)" paint-order="fill stroke markers" d=" M 567.4941281127544 164.02962754546616 L 559.0088467385165 152.71591904648216 L 547.695138239531 161.20120042071997 L 556.1804196137705 172.51490891970417 L 567.4941281127544 164.02962754546616" stroke-opacity="0.6" stroke-linecap="round" stroke-linejoin="round" stroke-miterlimit="10" stroke-width="1.5"/><path fill="none" stroke="rgb(255,204,51)" paint-order="fill stroke markers" d=" M 219.62991339637284 424.92778858275227 L 567.4941281127544 164.02962754546616" stroke-opacity="1" stroke-linejoin="round" stroke-miterlimit="10" stroke-width="2" stroke-dasharray="2,3"/><path fill="none" stroke="rgb(255,204,51)" paint-order="fill stroke markers" d=" M 727.3820207703391 377.21348442224564 L 395.6666666666666 626" stroke-opacity="1" stroke-linejoin="round" stroke-miterlimit="10" stroke-width="2" stroke-dasharray="2,3"/><path fill="rgb(192,192,192)" stroke="none" paint-order="stroke fill markers" d=" M 505.70245839339714 81.64073458632316 L 491.5543831608121 91.97971264090451 L 493.8590469996043 93.90026583989797 L 218.66963679687615 424.12755808317166 L 218.66963679687612 424.12755808317166 C 218.22768169560828 424.65790420469307 218.29933677527083 425.4461100809811 218.82968289679224 425.88806518224897 C 219.0633659531025 426.08280106250754 219.34711228010337 426.1778199258914 219.62924218939594 426.1778199258914 C 219.9874090372625 426.1778199258914 220.34297077486028 426.024682147544 220.59018999586957 425.7280190823329 L 495.7796001985977 95.50072683905914 L 498.08426403738986 97.42128003805259 L 505.70245839339714 81.64073458632316 Z" fill-opacity="0.6980392156862745"/><text fill="rgb(192,192,192)" stroke="none" font-family="geogebra-sans-serif, sans-serif" font-size="16px" font-style="normal" font-weight="normal" text-decoration="normal" x="359" y="250" text-anchor="start" dominant-baseline="alphabetic" fill-opacity="1">p1</text><text fill="none" stroke="rgb(255,255,255)" font-family="geogebra-sans-serif, sans-serif" font-size="16px" font-style="normal" font-weight="normal" text-decoration="normal" x="359" y="250" text-anchor="start" dominant-baseline="alphabetic" stroke-opacity="1" stroke-linejoin="bevel" stroke-miterlimit="10" stroke-width="3">p1</text><text fill="rgb(192,192,192)" stroke="none" font-family="geogebra-sans-serif, sans-serif" font-size="16px" font-style="normal" font-weight="normal" text-decoration="normal" x="359" y="250" text-anchor="start" dominant-baseline="alphabetic" fill-opacity="1">p1</text><path fill="rgb(192,192,192)" stroke="none" paint-order="stroke fill markers" d=" M 659.8227864827367 310.4987705839426 L 660.5503933578457 313.4091980843786 L 219.32674386507742 423.71511045757063 C 218.6570002300862 423.8825463663184 218.24979936244338 424.56121447905645 218.4172352711912 425.23095811404767 C 218.55922775817643 425.79892806198853 219.06888477026342 426.1780842749521 219.6289688441417 426.1780842749521 C 219.7293294731916 426.1780842749521 219.8313092406179 426.1659101296965 219.93308292766827 426.1404667079339 L 219.93308292766824 426.1404667079339 L 661.1567324204364 315.83455433474194 L 661.1567324204366 315.83455433474194 L 661.8843392955456 318.7449818351779 L 677.3459853916117 310.4987705839426 Z" fill-opacity="0.6980392156862745"/><text fill="rgb(192,192,192)" stroke="none" font-family="geogebra-sans-serif, sans-serif" font-size="16px" font-style="normal" font-weight="normal" text-decoration="normal" x="447" y="363" text-anchor="start" dominant-baseline="alphabetic" fill-opacity="1">p2</text><text fill="none" stroke="rgb(255,255,255)" font-family="geogebra-sans-serif, sans-serif" font-size="16px" font-style="normal" font-weight="normal" text-decoration="normal" x="447" y="363" text-anchor="start" dominant-baseline="alphabetic" stroke-opacity="1" stroke-linejoin="bevel" stroke-miterlimit="10" stroke-width="3">p2</text><text fill="rgb(192,192,192)" stroke="none" font-family="geogebra-sans-serif, sans-serif" font-size="16px" font-style="normal" font-weight="normal" text-decoration="normal" x="447" y="363" text-anchor="start" dominant-baseline="alphabetic" fill-opacity="1">p2</text><path fill="rgb(102,204,255)" stroke="none" paint-order="stroke fill markers" d=" M 505.70245839339714 81.64073458632318 L 512.5024583933972 97.79073458632315 L 514.9024583933972 95.99073458632317 L 676.3459853916117 311.2487705839426 C 676.591553276324 311.5761944302256 676.9669167257375 311.7488441486256 677.3469466062337 311.7488441486256 C 677.607935117833 311.7488441486256 677.871124488064 311.6674162616034 678.0959853916117 311.4987705839426 C 678.6482701414426 311.0845570215695 678.7601989539849 310.3010553337734 678.3459853916117 309.7487705839426 L 516.9024583933972 94.49073458632316 L 519.3024583933972 92.69073458632316 L 505.70245839339714 81.64073458632318 Z" fill-opacity="0.6980392156862745"/><text fill="rgb(102,204,255)" stroke="none" font-family="geogebra-sans-serif, sans-serif" font-size="16px" font-style="normal" font-weight="normal" text-decoration="normal" x="588" y="198" text-anchor="start" dominant-baseline="alphabetic" fill-opacity="1">p1 - p2</text><text fill="none" stroke="rgb(255,255,255)" font-family="geogebra-sans-serif, sans-serif" font-size="16px" font-style="normal" font-weight="normal" text-decoration="normal" x="588" y="198" text-anchor="start" dominant-baseline="alphabetic" stroke-opacity="1" stroke-linejoin="bevel" stroke-miterlimit="10" stroke-width="3">p1 - p2</text><text fill="rgb(102,204,255)" stroke="none" font-family="geogebra-sans-serif, sans-serif" font-size="16px" font-style="normal" font-weight="normal" text-decoration="normal" x="588" y="198" text-anchor="start" dominant-baseline="alphabetic" fill-opacity="1">p1 - p2</text><path fill="rgb(160,160,160)" stroke="none" paint-order="stroke fill markers" d=" M 219.6289617762552 423.6774936142187 C 219.0685050118869 423.6774936142187 218.55864294004414 424.0571463537799 218.4170042181334 424.62554476504454 C 218.2500795668828 425.295416007116 218.6577983365937 425.9737731097411 219.32766957866514 426.1406977609917 L 536.202191358236 505.1023932574147 L 535.4768061957375 508.0133752851893 L 535.476806195812 508.0133752851893 L 553 508 L 537.5320641561498 499.76559287316115 L 536.8066789936513 502.6765749009358 L 219.93215721408055 423.7148794045128 C 219.83068438327373 423.68959347517296 219.72901683147387 423.6774936142187 219.6289617762552 423.6774936142187 Z" fill-opacity="0.6980392156862745"/><text fill="rgb(160,160,160)" stroke="none" font-family="geogebra-sans-serif, sans-serif" font-size="16px" font-style="normal" font-weight="normal" text-decoration="normal" x="387" y="462" text-anchor="start" dominant-baseline="alphabetic" fill-opacity="1">xy</text><text fill="none" stroke="rgb(255,255,255)" font-family="geogebra-sans-serif, sans-serif" font-size="16px" font-style="normal" font-weight="normal" text-decoration="normal" x="387" y="462" text-anchor="start" dominant-baseline="alphabetic" stroke-opacity="1" stroke-linejoin="bevel" stroke-miterlimit="10" stroke-width="3">xy</text><text fill="rgb(160,160,160)" stroke="none" font-family="geogebra-sans-serif, sans-serif" font-size="16px" font-style="normal" font-weight="normal" text-decoration="normal" x="387" y="462" text-anchor="start" dominant-baseline="alphabetic" fill-opacity="1">xy</text><path fill="rgb(153,102,255)" stroke="none" paint-order="stroke fill markers" d=" M 677.3471705126627 309.24860717739074 C 676.9319074549815 309.24860717739074 676.5257684538495 309.45541025547203 676.2881783054838 309.83277946648116 L 560.9996721113476 492.9478325111986 L 560.9996721113475 492.9478325111986 L 558.4609351046406 491.34945382929124 L 553 508 L 565.6540232903105 495.87819342802896 L 563.1152862836035 494.27981474612153 L 678.4037924777397 311.164761701404 C 678.7716092154363 310.5805509794726 678.5961872310046 309.8087802355114 678.0119765090732 309.44096349781466 C 677.8051349981508 309.3107369084837 677.5747821878476 309.24860717739074 677.3471705126627 309.24860717739074 Z" fill-opacity="0.6980392156862745"/><text fill="rgb(153,102,255)" stroke="none" font-family="geogebra-sans-serif, sans-serif" font-size="16px" font-style="normal" font-weight="normal" text-decoration="normal" x="618" y="411" text-anchor="start" dominant-baseline="alphabetic" fill-opacity="1">xy - p2</text><text fill="none" stroke="rgb(255,255,255)" font-family="geogebra-sans-serif, sans-serif" font-size="16px" font-style="normal" font-weight="normal" text-decoration="normal" x="618" y="411" text-anchor="start" dominant-baseline="alphabetic" stroke-opacity="1" stroke-linejoin="bevel" stroke-miterlimit="10" stroke-width="3">xy - p2</text><text fill="rgb(153,102,255)" stroke="none" font-family="geogebra-sans-serif, sans-serif" font-size="16px" font-style="normal" font-weight="normal" text-decoration="normal" x="618" y="411" text-anchor="start" dominant-baseline="alphabetic" fill-opacity="1">xy - p2</text><path fill="rgb(255,127,0)" stroke="none" paint-order="stroke fill markers" d=" M 265.4015205958966 390.5990831831094 L 248.30152059589673 397.79908318310936 L 250.10152059589674 400.1990831831094 L 250.10152059589672 400.1990831831094 L 218.72991339637284 423.7277885827523 C 218.06717169657588 424.2248448576 217.93285712152513 425.1650468829554 218.42991339637285 425.8277885827523 C 218.7245948580276 426.22069719829193 219.1750309973238 426.4278768603719 219.63106685391924 426.4278768603719 C 219.9442530678384 426.4278768603719 220.26008031211552 426.33016339594525 220.52991339637285 426.12778858275226 L 251.90152059589664 402.5990831831094 L 251.90152059589676 402.5990831831094 L 253.7015205958967 404.9990831831094 L 265.40152059589667 390.5990831831094 Z" fill-opacity="0.6980392156862745"/><path fill="rgb(255,127,0)" stroke="none" paint-order="stroke fill markers" d=" M 598.7716071995238 473.6712946003571 L 581.6716071995238 480.8712946003571 L 583.4716071995239 483.2712946003571 L 552.1 506.8 C 551.4372583002031 507.2970562748477 551.3029437251522 508.23725830020305 551.8 508.9 C 552.0946814616547 509.2929086155396 552.5451176009509 509.50008827761957 553.0011534575464 509.5000882776196 C 553.3143396714655 509.5000882776196 553.6301669157427 509.402374813193 553.9 509.2 L 585.2716071995238 485.6712946003571 L 587.0716071995239 488.07129460035713 L 598.7716071995238 473.6712946003571 Z" fill-opacity="0.6980392156862745"/><text fill="rgb(255,127,0)" stroke="none" font-family="geogebra-sans-serif, sans-serif" font-size="16px" font-style="normal" font-weight="normal" text-decoration="normal" x="573" y="487" text-anchor="start" dominant-baseline="alphabetic" fill-opacity="1">per</text><text fill="none" stroke="rgb(255,255,255)" font-family="geogebra-sans-serif, sans-serif" font-size="16px" font-style="normal" font-weight="normal" text-decoration="normal" x="573" y="487" text-anchor="start" dominant-baseline="alphabetic" stroke-opacity="1" stroke-linejoin="bevel" stroke-miterlimit="10" stroke-width="3">per</text><text fill="rgb(255,127,0)" stroke="none" font-family="geogebra-sans-serif, sans-serif" font-size="16px" font-style="normal" font-weight="normal" text-decoration="normal" x="573" y="487" text-anchor="start" dominant-baseline="alphabetic" fill-opacity="1">per</text><path fill="rgb(153,102,255)" stroke="none" paint-order="stroke fill markers" d=" M 505.7040019217603 80.39062461638682 C 505.65796488875645 80.39062461638682 505.61145971791984 80.39316150380688 505.56463691107814 80.39835572341082 C 504.8784900115795 80.47447242629468 504.38396282760095 81.09240916914356 504.4600795304848 81.77855606864217 L 549.883248977549 491.241468946711 C 549.8832489777718 491.2414689487196 549.8832489779946 491.24146895072823 549.8832489782175 491.24146895273685 L 549.8832489232295 491.24146895273685 L 546.9015397065593 491.57224050427664 L 553 508 L 555.3497159743633 490.63505442450736 L 552.3680067033736 490.965825982073 L 552.3680067033737 490.965825982073 L 506.9448372563095 81.50291310400415 C 506.8739147730296 80.86358901134722 506.33259696633587 80.39062461638683 505.7040019217603 80.39062461638682 Z" fill-opacity="0.6980392156862745"/><text fill="rgb(153,102,255)" stroke="none" font-family="geogebra-sans-serif, sans-serif" font-size="16px" font-style="normal" font-weight="normal" text-decoration="normal" x="533" y="294" text-anchor="start" dominant-baseline="alphabetic" fill-opacity="1">xy - p1</text><text fill="none" stroke="rgb(255,255,255)" font-family="geogebra-sans-serif, sans-serif" font-size="16px" font-style="normal" font-weight="normal" text-decoration="normal" x="533" y="294" text-anchor="start" dominant-baseline="alphabetic" stroke-opacity="1" stroke-linejoin="bevel" stroke-miterlimit="10" stroke-width="3">xy - p1</text><text fill="rgb(153,102,255)" stroke="none" font-family="geogebra-sans-serif, sans-serif" font-size="16px" font-style="normal" font-weight="normal" text-decoration="normal" x="533" y="294" text-anchor="start" dominant-baseline="alphabetic" fill-opacity="1">xy - p1</text><path fill="rgb(204,204,255)" stroke="none" paint-order="stroke fill markers" d=" M 727.3820207703391 377.21348442224564 L 711.2320207703391 384.01348442224565 L 713.032020770339 386.41348442224563 L 711.8499999999999 387.29999999999995 L 713.3499999999999 389.29999999999995 L 714.532020770339 388.41348442224563 L 716.332020770339 390.8134844222456 L 727.3820207703391 377.21348442224564 Z M 708.65 389.69999999999993 L 703.4499999999999 393.59999999999997 L 704.9499999999999 395.59999999999997 L 710.15 391.69999999999993 L 708.65 389.69999999999993 Z M 700.25 395.99999999999994 L 695.05 399.9 L 696.55 401.9 L 701.75 397.99999999999994 L 700.25 395.99999999999994 Z M 691.8499999999999 402.29999999999995 L 686.65 406.19999999999993 L 688.15 408.19999999999993 L 693.3499999999999 404.29999999999995 L 691.8499999999999 402.29999999999995 Z M 683.4499999999999 408.59999999999997 L 678.25 412.49999999999994 L 679.75 414.49999999999994 L 684.9499999999999 410.59999999999997 L 683.4499999999999 408.59999999999997 Z M 675.05 414.9 L 669.8499999999999 418.79999999999995 L 671.3499999999999 420.79999999999995 L 676.55 416.9 L 675.05 414.9 Z M 666.65 421.19999999999993 L 661.4499999999999 425.09999999999997 L 662.9499999999999 427.09999999999997 L 668.15 423.19999999999993 L 666.65 421.19999999999993 Z M 658.25 427.49999999999994 L 653.05 431.4 L 654.55 433.4 L 659.75 429.49999999999994 L 658.25 427.49999999999994 Z M 649.85 433.79999999999995 L 644.65 437.7 L 646.15 439.7 L 651.35 435.79999999999995 L 649.85 433.79999999999995 Z M 641.4499999999999 440.09999999999997 L 636.25 444 L 637.75 446 L 642.9499999999999 442.09999999999997 L 641.4499999999999 440.09999999999997 Z M 633.05 446.4 L 627.85 450.29999999999995 L 629.35 452.29999999999995 L 634.55 448.4 L 633.05 446.4 Z M 624.65 452.7 L 619.45 456.59999999999997 L 620.95 458.59999999999997 L 626.15 454.7 L 624.65 452.7 Z M 616.25 459 L 611.05 462.9 L 612.55 464.9 L 617.75 461 L 616.25 459 Z M 607.85 465.29999999999995 L 602.65 469.2 L 604.15 471.2 L 609.35 467.29999999999995 L 607.85 465.29999999999995 Z M 599.45 471.59999999999997 L 594.25 475.5 L 595.75 477.5 L 600.95 473.59999999999997 L 599.45 471.59999999999997 Z M 591.05 477.9 L 585.85 481.8 L 587.35 483.8 L 592.55 479.9 L 591.05 477.9 Z M 582.65 484.2 L 577.45 488.1 L 578.95 490.1 L 584.15 486.2 L 582.65 484.2 Z M 574.25 490.5 L 569.05 494.4 L 570.55 496.4 L 575.75 492.5 L 574.25 490.5 Z M 565.85 496.8 L 560.65 500.7 L 562.15 502.7 L 567.35 498.8 L 565.85 496.8 Z M 557.45 503.1 L 552.25 507 L 553.75 509 L 558.95 505.1 L 557.45 503.1 Z" fill-opacity="1"/><text fill="rgb(204,204,255)" stroke="none" font-family="geogebra-sans-serif, sans-serif" font-size="16px" font-style="normal" font-weight="normal" text-decoration="normal" x="637" y="439" text-anchor="start" dominant-baseline="alphabetic" fill-opacity="1">dist</text><text fill="none" stroke="rgb(255,255,255)" font-family="geogebra-sans-serif, sans-serif" font-size="16px" font-style="normal" font-weight="normal" text-decoration="normal" x="637" y="439" text-anchor="start" dominant-baseline="alphabetic" stroke-opacity="1" stroke-linejoin="bevel" stroke-miterlimit="10" stroke-width="3">dist</text><text fill="rgb(204,204,255)" stroke="none" font-family="geogebra-sans-serif, sans-serif" font-size="16px" font-style="normal" font-weight="normal" text-decoration="normal" x="637" y="439" text-anchor="start" dominant-baseline="alphabetic" fill-opacity="1">dist</text><path fill="rgb(204,204,255)" stroke="none" paint-order="stroke fill markers" d=" M 331.3204376230579 212.42725016407775 L 338.1204376230579 228.57725016407773 L 340.5204376230579 226.7772501640777 L 344.09999999999974 231.55000000000018 L 346.09999999999974 230.05000000000018 L 342.5204376230579 225.2772501640777 L 344.92043762305786 223.4772501640777 L 331.32043762305796 212.42725016407775 Z M 348.4999999999998 233.25000000000017 L 346.4999999999998 234.75000000000017 L 350.39999999999975 239.95000000000016 L 352.39999999999975 238.45000000000016 L 348.4999999999998 233.25000000000017 Z M 354.7999999999997 241.6500000000002 L 352.7999999999997 243.1500000000002 L 356.69999999999976 248.3500000000002 L 358.69999999999976 246.8500000000002 L 354.7999999999997 241.6500000000002 Z M 361.09999999999974 250.05000000000013 L 359.09999999999974 251.55000000000013 L 362.9999999999998 256.7500000000001 L 364.9999999999998 255.2500000000001 L 361.09999999999974 250.05000000000013 Z M 367.39999999999975 258.45000000000016 L 365.39999999999975 259.95000000000016 L 369.2999999999998 265.15000000000015 L 371.2999999999998 263.65000000000015 L 367.39999999999975 258.45000000000016 Z M 373.6999999999998 266.85000000000014 L 371.6999999999998 268.35000000000014 L 375.5999999999998 273.5500000000002 L 377.5999999999998 272.0500000000002 L 373.6999999999998 266.85000000000014 Z M 379.9999999999998 275.25000000000017 L 377.9999999999998 276.75000000000017 L 381.89999999999975 281.95000000000016 L 383.89999999999975 280.45000000000016 L 379.9999999999998 275.25000000000017 Z M 386.2999999999998 283.65000000000015 L 384.2999999999998 285.15000000000015 L 388.1999999999998 290.35000000000014 L 390.1999999999998 288.85000000000014 L 386.2999999999998 283.65000000000015 Z M 392.5999999999998 292.0500000000002 L 390.5999999999998 293.5500000000002 L 394.4999999999998 298.7500000000001 L 396.4999999999998 297.2500000000001 L 392.5999999999998 292.0500000000002 Z M 398.8999999999998 300.45000000000016 L 396.8999999999998 301.95000000000016 L 400.79999999999984 307.1500000000001 L 402.79999999999984 305.6500000000001 L 398.8999999999998 300.45000000000016 Z M 405.1999999999998 308.85000000000014 L 403.1999999999998 310.35000000000014 L 407.0999999999998 315.5500000000001 L 409.0999999999998 314.0500000000001 L 405.1999999999998 308.85000000000014 Z M 411.49999999999983 317.2500000000001 L 409.49999999999983 318.7500000000001 L 413.39999999999986 323.95000000000016 L 415.39999999999986 322.45000000000016 L 411.49999999999983 317.2500000000001 Z M 417.79999999999984 325.6500000000001 L 415.79999999999984 327.1500000000001 L 419.6999999999998 332.35000000000014 L 421.6999999999998 330.85000000000014 L 417.79999999999984 325.6500000000001 Z M 424.0999999999998 334.05000000000007 L 422.0999999999998 335.55000000000007 L 425.99999999999983 340.7500000000001 L 427.99999999999983 339.2500000000001 L 424.0999999999998 334.05000000000007 Z M 430.39999999999986 342.4500000000001 L 428.39999999999986 343.9500000000001 L 432.29999999999984 349.1500000000001 L 434.29999999999984 347.6500000000001 L 430.39999999999986 342.4500000000001 Z M 436.6999999999999 350.85000000000014 L 434.6999999999999 352.35000000000014 L 438.59999999999985 357.55000000000007 L 440.59999999999985 356.05000000000007 L 436.6999999999999 350.85000000000014 Z M 442.9999999999999 359.2500000000001 L 440.9999999999999 360.7500000000001 L 444.89999999999986 365.95000000000005 L 446.89999999999986 364.45000000000005 L 442.9999999999999 359.2500000000001 Z M 449.29999999999984 367.6500000000001 L 447.29999999999984 369.1500000000001 L 451.1999999999999 374.3500000000001 L 453.1999999999999 372.8500000000001 L 449.29999999999984 367.6500000000001 Z M 455.5999999999999 376.05000000000007 L 453.5999999999999 377.55000000000007 L 457.4999999999999 382.75000000000006 L 459.4999999999999 381.25000000000006 L 455.5999999999999 376.05000000000007 Z M 461.89999999999986 384.45000000000005 L 459.89999999999986 385.95000000000005 L 463.7999999999999 391.1500000000001 L 465.7999999999999 389.6500000000001 L 461.89999999999986 384.45000000000005 Z M 468.1999999999999 392.8500000000001 L 466.1999999999999 394.3500000000001 L 470.0999999999999 399.55000000000007 L 472.0999999999999 398.05000000000007 L 468.1999999999999 392.8500000000001 Z M 474.4999999999999 401.25000000000006 L 472.4999999999999 402.75000000000006 L 476.3999999999999 407.95000000000005 L 478.3999999999999 406.45000000000005 L 474.4999999999999 401.25000000000006 Z M 480.7999999999999 409.6500000000001 L 478.7999999999999 411.1500000000001 L 482.69999999999993 416.3500000000001 L 484.69999999999993 414.8500000000001 L 480.7999999999999 409.6500000000001 Z M 487.0999999999999 418.05000000000007 L 485.0999999999999 419.55000000000007 L 488.99999999999994 424.75000000000006 L 490.99999999999994 423.25000000000006 L 487.0999999999999 418.05000000000007 Z M 493.3999999999999 426.45000000000005 L 491.3999999999999 427.95000000000005 L 495.29999999999995 433.15000000000003 L 497.29999999999995 431.65000000000003 L 493.3999999999999 426.45000000000005 Z M 499.69999999999993 434.85 L 497.69999999999993 436.35 L 501.5999999999999 441.55000000000007 L 503.5999999999999 440.05000000000007 L 499.69999999999993 434.85 Z M 505.99999999999994 443.25000000000006 L 503.99999999999994 444.75000000000006 L 507.9 449.95000000000005 L 509.9 448.45000000000005 L 505.99999999999994 443.25000000000006 Z M 512.3 451.65000000000003 L 510.29999999999995 453.15000000000003 L 514.1999999999999 458.35 L 516.1999999999999 456.85 L 512.3 451.65000000000003 Z M 518.5999999999999 460.05 L 516.5999999999999 461.55 L 520.5 466.75 L 522.5 465.25 L 518.5999999999999 460.05 Z M 524.9 468.45000000000005 L 522.9 469.95000000000005 L 526.8 475.15000000000003 L 528.8 473.65000000000003 L 524.9 468.45000000000005 Z M 531.1999999999999 476.85 L 529.1999999999999 478.35 L 533.1 483.55 L 535.1 482.05 L 531.1999999999999 476.85 Z M 537.5 485.25 L 535.5 486.75 L 539.4 491.95 L 541.4 490.45 L 537.5 485.25 Z M 543.8 493.65000000000003 L 541.8 495.15000000000003 L 545.7 500.35 L 547.7 498.85 L 543.8 493.65000000000003 Z M 550.1 502.05 L 548.1 503.55 L 552 508.75 L 554 507.25 L 550.1 502.05 Z" fill-opacity="1"/><path fill="rgb(97,97,97)" stroke="none" paint-order="stroke fill markers" d=" M 224.62991339637284 424.92778858275227 C 224.62991339637284 427.6892123319062 222.39133714552682 429.92778858275227 219.62991339637284 429.92778858275227 C 216.86848964721887 429.92778858275227 214.62991339637284 427.6892123319062 214.62991339637284 424.92778858275227 C 214.62991339637284 422.1663648335983 216.86848964721887 419.92778858275227 219.62991339637284 419.92778858275227 C 222.39133714552682 419.92778858275227 224.62991339637284 422.1663648335983 224.62991339637284 424.92778858275227 Z" fill-opacity="1"/><text fill="rgb(97,97,97)" stroke="none" font-family="geogebra-sans-serif, sans-serif" font-size="16px" font-style="normal" font-weight="normal" text-decoration="normal" x="224" y="415" text-anchor="start" dominant-baseline="alphabetic" fill-opacity="1">O</text><text fill="none" stroke="rgb(255,255,255)" font-family="geogebra-sans-serif, sans-serif" font-size="16px" font-style="normal" font-weight="normal" text-decoration="normal" x="224" y="415" text-anchor="start" dominant-baseline="alphabetic" stroke-opacity="1" stroke-linejoin="bevel" stroke-miterlimit="10" stroke-width="3">O</text><text fill="rgb(97,97,97)" stroke="none" font-family="geogebra-sans-serif, sans-serif" font-size="16px" font-style="normal" font-weight="normal" text-decoration="normal" x="224" y="415" text-anchor="start" dominant-baseline="alphabetic" fill-opacity="1">O</text><path fill="rgb(102,204,255)" stroke="none" paint-order="stroke fill markers" d=" M 510.70245839339714 81.64073458632316 C 510.70245839339714 84.40215833547713 508.4638821425511 86.64073458632316 505.70245839339714 86.64073458632316 C 502.9410346442432 86.64073458632316 500.70245839339714 84.40215833547713 500.70245839339714 81.64073458632316 C 500.70245839339714 78.8793108371692 502.9410346442432 76.64073458632316 505.70245839339714 76.64073458632316 C 508.4638821425511 76.64073458632316 510.70245839339714 78.8793108371692 510.70245839339714 81.64073458632316 Z" fill-opacity="1"/><text fill="rgb(102,204,255)" stroke="none" font-family="geogebra-sans-serif, sans-serif" font-size="16px" font-style="normal" font-weight="normal" text-decoration="normal" x="510" y="72" text-anchor="start" dominant-baseline="alphabetic" fill-opacity="1">p1</text><text fill="none" stroke="rgb(255,255,255)" font-family="geogebra-sans-serif, sans-serif" font-size="16px" font-style="normal" font-weight="normal" text-decoration="normal" x="510" y="72" text-anchor="start" dominant-baseline="alphabetic" stroke-opacity="1" stroke-linejoin="bevel" stroke-miterlimit="10" stroke-width="3">p1</text><text fill="rgb(102,204,255)" stroke="none" font-family="geogebra-sans-serif, sans-serif" font-size="16px" font-style="normal" font-weight="normal" text-decoration="normal" x="510" y="72" text-anchor="start" dominant-baseline="alphabetic" fill-opacity="1">p1</text><path fill="rgb(102,204,255)" stroke="none" paint-order="stroke fill markers" d=" M 682.3459853916117 310.4987705839426 C 682.3459853916117 313.26019433309654 680.1074091407658 315.4987705839426 677.3459853916117 315.4987705839426 C 674.5845616424577 315.4987705839426 672.3459853916117 313.26019433309654 672.3459853916117 310.4987705839426 C 672.3459853916117 307.73734683478864 674.5845616424577 305.4987705839426 677.3459853916117 305.4987705839426 C 680.1074091407658 305.4987705839426 682.3459853916117 307.73734683478864 682.3459853916117 310.4987705839426 Z" fill-opacity="1"/><text fill="rgb(102,204,255)" stroke="none" font-family="geogebra-sans-serif, sans-serif" font-size="16px" font-style="normal" font-weight="normal" text-decoration="normal" x="681" y="300" text-anchor="start" dominant-baseline="alphabetic" fill-opacity="1">p2</text><text fill="none" stroke="rgb(255,255,255)" font-family="geogebra-sans-serif, sans-serif" font-size="16px" font-style="normal" font-weight="normal" text-decoration="normal" x="681" y="300" text-anchor="start" dominant-baseline="alphabetic" stroke-opacity="1" stroke-linejoin="bevel" stroke-miterlimit="10" stroke-width="3">p2</text><text fill="rgb(102,204,255)" stroke="none" font-family="geogebra-sans-serif, sans-serif" font-size="16px" font-style="normal" font-weight="normal" text-decoration="normal" x="681" y="300" text-anchor="start" dominant-baseline="alphabetic" fill-opacity="1">p2</text><path fill="rgb(255,102,153)" stroke="none" paint-order="stroke fill markers" d=" M 558 508 C 558 510.76142374915395 555.761423749154 513 553 513 C 550.238576250846 513 548 510.76142374915395 548 508 C 548 505.23857625084605 550.238576250846 503 553 503 C 555.761423749154 503 558 505.23857625084605 558 508 Z" fill-opacity="1"/><text fill="rgb(255,102,153)" stroke="none" font-family="geogebra-sans-serif, sans-serif" font-size="16px" font-style="normal" font-weight="normal" text-decoration="normal" x="557" y="498" text-anchor="start" dominant-baseline="alphabetic" fill-opacity="1">xy</text><text fill="none" stroke="rgb(255,255,255)" font-family="geogebra-sans-serif, sans-serif" font-size="16px" font-style="normal" font-weight="normal" text-decoration="normal" x="557" y="498" text-anchor="start" dominant-baseline="alphabetic" stroke-opacity="1" stroke-linejoin="bevel" stroke-miterlimit="10" stroke-width="3">xy</text><text fill="rgb(255,102,153)" stroke="none" font-family="geogebra-sans-serif, sans-serif" font-size="16px" font-style="normal" font-weight="normal" text-decoration="normal" x="557" y="498" text-anchor="start" dominant-baseline="alphabetic" fill-opacity="1">xy</text></g></g></svg>