<svg id="visual" viewBox="0 0 900 900" width="900" height="900" xmlns="http://www.w3.org/2000/svg" xmlns:xlink="http://www.w3.org/1999/xlink" version="1.1"><path d="M0 601L43 601L43 652L86 652L86 530L129 530L129 334L171 334L171 683L214 683L214 688L257 688L257 519L300 519L300 419L343 419L343 778L386 778L386 353L429 353L429 327L471 327L471 628L514 628L514 501L557 501L557 594L600 594L600 695L643 695L643 354L686 354L686 455L729 455L729 294L771 294L771 540L814 540L814 626L857 626L857 320L900 320L900 595L900 901L900 901L857 901L857 901L814 901L814 901L771 901L771 901L729 901L729 901L686 901L686 901L643 901L643 901L600 901L600 901L557 901L557 901L514 901L514 901L471 901L471 901L429 901L429 901L386 901L386 901L343 901L343 901L300 901L300 901L257 901L257 901L214 901L214 901L171 901L171 901L129 901L129 901L86 901L86 901L43 901L43 901L0 901Z" fill="#5efee4"></path><path d="M0 660L43 660L43 666L86 666L86 668L129 668L129 528L171 528L171 677L214 677L214 451L257 451L257 703L300 703L300 651L343 651L343 793L386 793L386 531L429 531L429 689L471 689L471 457L514 457L514 756L557 756L557 590L600 590L600 557L643 557L643 803L686 803L686 633L729 633L729 567L771 567L771 778L814 778L814 387L857 387L857 502L900 502L900 462L900 901L900 901L857 901L857 901L814 901L814 901L771 901L771 901L729 901L729 901L686 901L686 901L643 901L643 901L600 901L600 901L557 901L557 901L514 901L514 901L471 901L471 901L429 901L429 901L386 901L386 901L343 901L343 901L300 901L300 901L257 901L257 901L214 901L214 901L171 901L171 901L129 901L129 901L86 901L86 901L43 901L43 901L0 901Z" fill="#14edf4"></path><path d="M0 480L43 480L43 628L86 628L86 582L129 582L129 813L171 813L171 706L214 706L214 693L257 693L257 713L300 713L300 613L343 613L343 530L386 530L386 727L429 727L429 672L471 672L471 801L514 801L514 781L557 781L557 533L600 533L600 759L643 759L643 786L686 786L686 691L729 691L729 817L771 817L771 563L814 563L814 569L857 569L857 667L900 667L900 773L900 901L900 901L857 901L857 901L814 901L814 901L771 901L771 901L729 901L729 901L686 901L686 901L643 901L643 901L600 901L600 901L557 901L557 901L514 901L514 901L471 901L471 901L429 901L429 901L386 901L386 901L343 901L343 901L300 901L300 901L257 901L257 901L214 901L214 901L171 901L171 901L129 901L129 901L86 901L86 901L43 901L43 901L0 901Z" fill="#00dafe"></path><path d="M0 580L43 580L43 616L86 616L86 809L129 809L129 691L171 691L171 645L214 645L214 728L257 728L257 614L300 614L300 736L343 736L343 671L386 671L386 825L429 825L429 618L471 618L471 613L514 613L514 672L557 672L557 669L600 669L600 693L643 693L643 739L686 739L686 680L729 680L729 727L771 727L771 744L814 744L814 779L857 779L857 633L900 633L900 684L900 901L900 901L857 901L857 901L814 901L814 901L771 901L771 901L729 901L729 901L686 901L686 901L643 901L643 901L600 901L600 901L557 901L557 901L514 901L514 901L471 901L471 901L429 901L429 901L386 901L386 901L343 901L343 901L300 901L300 901L257 901L257 901L214 901L214 901L171 901L171 901L129 901L129 901L86 901L86 901L43 901L43 901L0 901Z" fill="#00c5ff"></path><path d="M0 757L43 757L43 692L86 692L86 688L129 688L129 712L171 712L171 675L214 675L214 737L257 737L257 835L300 835L300 831L343 831L343 715L386 715L386 656L429 656L429 794L471 794L471 707L514 707L514 839L557 839L557 663L600 663L600 715L643 715L643 761L686 761L686 846L729 846L729 781L771 781L771 662L814 662L814 838L857 838L857 809L900 809L900 795L900 901L900 901L857 901L857 901L814 901L814 901L771 901L771 901L729 901L729 901L686 901L686 901L643 901L643 901L600 901L600 901L557 901L557 901L514 901L514 901L471 901L471 901L429 901L429 901L386 901L386 901L343 901L343 901L300 901L300 901L257 901L257 901L214 901L214 901L171 901L171 901L129 901L129 901L86 901L86 901L43 901L43 901L0 901Z" fill="#75a2ff"></path><path d="M0 814L43 814L43 745L86 745L86 813L129 813L129 859L171 859L171 729L214 729L214 796L257 796L257 737L300 737L300 864L343 864L343 825L386 825L386 774L429 774L429 823L471 823L471 805L514 805L514 805L557 805L557 788L600 788L600 836L643 836L643 744L686 744L686 769L729 769L729 853L771 853L771 740L814 740L814 857L857 857L857 740L900 740L900 771L900 901L900 901L857 901L857 901L814 901L814 901L771 901L771 901L729 901L729 901L686 901L686 901L643 901L643 901L600 901L600 901L557 901L557 901L514 901L514 901L471 901L471 901L429 901L429 901L386 901L386 901L343 901L343 901L300 901L300 901L257 901L257 901L214 901L214 901L171 901L171 901L129 901L129 901L86 901L86 901L43 901L43 901L0 901Z" fill="#ee5af6"></path></svg>