<?xml version="1.0" standalone="no"?>
<!DOCTYPE svg PUBLIC "-//W3C//DTD SVG 20010904//EN"
 "http://www.w3.org/TR/2001/REC-SVG-20010904/DTD/svg10.dtd">
<svg version="1.0" xmlns="http://www.w3.org/2000/svg" xmlns:xlink="http://www.w3.org/1999/xlink"
 width="400.000000pt" height="400.000000pt" viewBox="0 0 400.000000 400.000000"
 preserveAspectRatio="xMidYMid meet">

<g transform="translate(0.000000,400.000000) scale(0.100000,-0.100000)"
fill="#d8dde9" stroke="none">
<path d="M0 2000 l0 -2000 625 0 c344 0 625 2 625 5 0 4 -7 20 -16 36 -14 29
-14 32 3 44 16 12 21 11 47 -14 24 -24 26 -32 17 -50 -12 -21 -10 -21 79 -21
108 0 116 8 71 74 -38 54 -38 60 -6 74 36 16 45 49 29 96 -27 75 -19 111 36
175 27 32 50 63 50 69 0 18 69 32 163 32 48 0 87 3 87 8 0 21 -75 115 -98 123
-20 7 -33 25 -52 69 -21 50 -27 57 -40 46 -36 -31 -43 -28 -22 6 12 19 22 52
22 72 0 30 5 38 26 47 36 13 38 8 9 -31 -14 -19 -25 -37 -25 -41 0 -4 20 -11
45 -15 45 -6 46 -7 83 -82 20 -42 42 -78 49 -80 8 -2 13 18 15 65 l3 68 34
-58 c18 -32 39 -61 46 -64 27 -10 101 33 115 66 14 34 9 49 -30 101 l-19 25
-21 -28 c-12 -15 -25 -27 -30 -27 -4 0 -31 29 -59 65 -28 36 -50 65 -48 65 2
0 18 -5 34 -11 23 -7 30 -15 26 -28 -4 -15 4 -20 42 -26 30 -4 58 -2 76 6 28
11 29 14 23 56 l-7 45 48 -7 47 -8 -15 30 c-15 28 -14 31 10 62 l26 33 31 -37
c29 -34 34 -36 78 -33 l47 3 -35 39 c-32 36 -39 39 -80 37 -28 -1 -55 5 -74
16 l-30 17 40 21 41 21 -37 26 c-31 22 -41 40 -60 100 -25 77 -23 82 24 94 16
5 30 0 47 -16 21 -20 28 -22 50 -12 30 14 31 7 7 -47 -20 -43 -32 -44 -32 -2
0 22 -4 19 -31 -23 -16 -27 -28 -50 -25 -53 2 -2 18 3 35 12 l31 16 0 -42 0
-42 22 29 22 28 7 -25 c4 -13 7 -43 8 -66 1 -46 3 -48 31 -33 17 9 21 4 36
-45 14 -44 23 -56 47 -65 42 -14 43 -14 68 26 l22 37 -24 18 c-13 11 -57 35
-96 55 -40 19 -73 37 -73 40 0 2 12 23 27 45 l27 41 16 -55 c8 -31 18 -58 21
-61 3 -3 11 17 18 44 l13 51 36 -7 37 -6 -34 35 c-33 35 -35 35 -62 21 -42
-21 -48 -18 -42 23 7 49 8 49 34 24 13 -12 26 -21 29 -21 4 0 15 18 25 39 9
21 35 65 56 97 21 33 39 69 39 80 0 25 13 37 55 51 26 9 30 14 27 42 l-2 33
28 -20 28 -20 -4 34 c-4 33 -3 34 31 34 34 0 34 -1 50 -62 13 -54 14 -65 1
-74 -18 -14 -18 -24 0 -24 9 0 16 -17 20 -45 7 -42 9 -44 28 -34 17 9 19 17
14 53 -5 31 -1 55 13 89 11 25 23 62 27 82 l7 36 31 -29 c30 -28 32 -29 81
-18 l50 12 -47 28 c-27 15 -48 31 -48 35 0 4 21 18 48 30 l47 24 -70 24 c-56
19 -75 21 -94 13 l-24 -11 38 -39 c36 -37 36 -39 17 -49 -20 -11 -192 -16
-192 -6 0 3 14 31 32 62 l32 56 16 -59 17 -59 16 49 c9 27 17 76 17 107 0 55
-2 60 -36 85 l-35 27 48 49 48 49 6 -104 c3 -57 11 -111 16 -121 9 -17 12 -16
31 11 11 16 23 45 27 64 6 31 10 35 31 31 13 -2 24 -2 24 1 0 20 -29 68 -64
104 -22 24 -37 45 -34 48 3 4 29 12 58 20 l52 14 -4 -40 c-2 -21 -1 -39 2 -39
14 0 82 79 76 88 -9 16 179 9 197 -7 9 -7 19 -26 22 -42 4 -16 10 -31 14 -34
5 -2 33 13 64 35 76 55 97 46 70 -27 -4 -9 3 -11 23 -7 16 3 52 9 79 13 l50 7
-59 20 c-33 11 -61 24 -63 30 -1 5 15 29 35 53 l38 43 59 -15 c33 -8 61 -14
63 -13 6 6 -33 96 -41 96 -5 0 -27 -16 -48 -35 l-39 -35 -35 39 c-38 42 -42
51 -21 51 7 0 26 10 41 22 l28 22 -5 -33 -5 -32 33 32 33 32 12 -26 c11 -25
12 -25 58 -11 37 11 51 11 73 1 16 -6 28 -14 28 -17 -1 -3 -14 -21 -31 -40
-21 -25 -32 -31 -37 -23 -5 8 -17 -6 -35 -42 l-26 -54 43 -6 c52 -8 72 -3 108
29 22 20 68 94 68 110 0 3 -16 8 -35 12 -35 6 -49 24 -20 24 17 0 21 46 6 69
-8 12 -110 36 -118 27 -2 -2 1 -16 7 -31 6 -15 9 -29 7 -31 -11 -11 -83 67
-102 110 -13 28 -35 62 -49 75 -20 19 -26 34 -26 68 0 43 0 43 36 43 40 0 154
-27 167 -39 5 -5 1 -25 -7 -46 -9 -21 -16 -39 -16 -41 0 -2 31 -4 69 -4 61 0
70 -3 76 -20 9 -27 15 -26 64 17 l43 36 21 -27 c19 -23 27 -26 55 -20 29 6 32
10 32 42 0 25 -8 44 -27 64 l-27 28 27 0 c23 0 27 4 27 31 0 17 -5 39 -10 50
-7 13 -7 19 0 19 7 0 10 202 10 630 l0 630 -2000 0 -2000 0 0 -2000z m3653
876 c4 -10 0 -12 -14 -9 -22 6 -26 23 -5 23 8 0 16 -6 19 -14z m196 -74 l1
-34 -25 30 c-30 35 -30 40 -8 65 18 19 18 18 24 -5 4 -12 7 -38 8 -56z m97 5
l20 -52 -27 -44 c-15 -24 -30 -45 -33 -48 -5 -5 -46 83 -46 100 0 14 49 97 58
97 4 0 16 -24 28 -53z m-456 -16 c0 -4 -15 -18 -32 -31 l-33 -24 16 24 c8 14
19 31 23 38 7 12 26 8 26 -7z m309 -92 c1 -15 8 -43 17 -64 18 -44 15 -50 -20
-34 -30 14 -32 22 -11 39 19 16 10 30 -21 30 -30 0 -30 11 -1 55 18 28 23 31
29 17 4 -9 7 -29 7 -43z m-454 -46 c19 -9 35 -20 35 -23 0 -8 -80 -33 -86 -27
-5 4 7 67 12 67 2 0 19 -8 39 -17z m377 -13 c-5 -35 -19 -47 -35 -31 -8 8 -4
18 13 36 13 14 24 25 25 25 1 0 0 -14 -3 -30z m201 -36 c-22 -45 -29 -43 -25
5 3 32 7 38 22 34 18 -5 18 -7 3 -39z m-169 -18 c-7 -18 -25 -17 -31 1 -2 6 4
13 14 15 23 5 25 4 17 -16z m-904 -56 c22 -11 40 -24 40 -28 0 -4 -14 -25 -32
-46 l-32 -39 -17 49 c-31 89 -25 98 41 64z m514 -30 c18 0 14 -7 -24 -41 l-45
-40 63 6 c37 4 62 2 62 -4 0 -5 -9 -30 -20 -55 -17 -41 -23 -46 -52 -46 -32 0
-34 3 -47 53 -8 28 -16 72 -19 96 l-4 44 32 -7 c18 -3 42 -6 54 -6z m-398 -81
l-14 -34 -1 32 c-1 17 5 33 12 36 19 7 19 2 3 -34z m241 -85 c-6 -7 -67 17
-67 26 0 5 10 26 22 46 l22 38 14 -53 c7 -30 11 -55 9 -57z m-502 86 c-3 -5
-13 -10 -21 -10 -8 0 -14 5 -14 10 0 6 9 10 21 10 11 0 17 -4 14 -10z m806
-37 c11 -13 9 -14 -15 -11 -16 1 -35 13 -44 25 -14 22 -14 23 16 12 17 -6 36
-17 43 -26z m-455 -13 c33 0 34 -1 34 -42 l0 -43 17 33 c17 35 31 32 35 -8 3
-20 -3 -25 -30 -31 -28 -6 -36 -3 -59 25 -14 17 -42 41 -62 54 l-36 23 34 -5
c18 -3 49 -6 67 -6z m-406 -135 c0 -21 -3 -24 -17 -17 -10 5 -25 12 -33 15
-11 3 -8 7 10 15 37 16 40 15 40 -13z m649 -16 l23 -31 25 24 25 23 -7 -40
c-10 -50 -12 -53 -29 -29 -14 18 -15 18 -75 -3 l-60 -22 22 47 c34 72 43 76
76 31z m-471 12 c11 -6 7 -13 -16 -30 -26 -18 -31 -19 -36 -5 -11 30 -6 44 17
44 12 0 28 -4 35 -9z m307 -31 c21 -23 20 -25 -19 -34 -24 -6 -27 -4 -22 9 3
9 6 23 6 31 0 20 14 17 35 -6z m-761 -9 c2 -3 -1 -17 -6 -31 -10 -27 -18 -20
-32 27 -6 18 -4 20 14 16 11 -3 22 -8 24 -12z m277 -183 l23 -31 -32 6 c-29 6
-31 5 -34 -28 l-3 -35 -50 33 -49 32 54 5 c48 4 55 8 58 28 4 29 6 28 33 -10z
m-221 -88 c0 -11 -2 -20 -5 -20 -2 0 -9 9 -15 20 -9 16 -8 20 5 20 8 0 15 -9
15 -20z m290 -41 c-26 -35 -30 -34 -23 4 4 18 12 27 25 27 19 0 19 -1 -2 -31z
m-232 -9 c8 -4 -6 -11 -33 -17 -39 -9 -45 -8 -41 4 3 8 6 19 6 24 0 9 43 3 68
-11z m-92 -107 c-3 -3 -17 -2 -32 1 l-27 7 29 30 29 31 3 -32 c2 -18 1 -34 -2
-37z m164 -18 c11 -13 10 -14 -4 -9 -9 3 -16 10 -16 15 0 13 6 11 20 -6z
m-165 -57 c17 -29 31 -56 33 -60 4 -8 -63 -28 -95 -28 -18 0 -23 6 -23 26 0
17 -12 38 -34 59 -34 32 -35 33 -13 43 12 6 40 11 62 11 38 1 42 -2 70 -51z
m-39 -163 c-14 -33 -36 -41 -36 -13 0 13 41 60 47 54 2 -2 -3 -20 -11 -41z
m-371 -79 l17 -45 -28 -29 -28 -28 -28 26 c-15 15 -28 31 -28 36 0 7 70 84 76
84 1 0 10 -20 19 -44z m215 -6 c7 -17 11 -32 9 -34 -2 -2 -31 -6 -64 -10 l-60
-6 45 40 c25 22 48 40 51 40 4 0 12 -14 19 -30z m-421 -124 c29 -10 31 -13 18
-25 -13 -10 -21 -9 -46 10 -17 13 -31 24 -31 26 0 6 25 1 59 -11z m175 -131
c9 -32 16 -78 16 -101 0 -24 4 -54 9 -67 9 -24 7 -25 -34 -31 -37 -6 -50 -3
-91 24 -27 17 -54 41 -61 54 -11 21 -9 26 17 51 32 31 36 26 19 -24 -6 -18 -9
-34 -7 -37 3 -2 22 3 42 11 l37 16 -25 30 c-27 32 -26 49 2 49 9 1 30 7 46 13
l30 13 -38 24 -38 23 23 13 c31 16 35 11 53 -61z m79 -64 c15 -6 13 -9 -17
-24 -39 -18 -42 -16 -26 14 11 20 15 21 43 10z m-399 -142 l39 -11 -52 -30
c-29 -16 -54 -28 -55 -26 -5 6 -26 71 -26 81 0 9 12 7 94 -14z m-88 -56 c-2
-2 -20 4 -41 12 -35 15 -36 17 -19 30 17 13 21 12 41 -12 12 -15 21 -29 19
-30z m-2 -35 c-4 -7 -23 -33 -42 -57 l-36 -44 -12 34 -11 34 46 22 c54 25 65
27 55 11z m-35 -142 c29 -29 32 -38 26 -70 -7 -35 -9 -36 -49 -36 l-41 1 35
31 c19 17 27 28 17 24 -11 -3 -29 -9 -42 -12 l-24 -6 17 51 c8 28 19 51 22 51
3 0 21 -15 39 -34z m461 -2 c0 -2 -13 -23 -30 -46 -27 -37 -30 -38 -30 -17 0
13 3 41 6 61 6 36 7 37 30 21 13 -8 24 -17 24 -19z m-754 -110 c-30 -22 -36
-17 -36 28 l0 43 28 -28 c26 -27 27 -28 8 -43z m79 31 c-28 -23 -45 -31 -45
-21 0 5 63 46 70 46 3 0 -8 -11 -25 -25z m195 -123 c0 -32 0 -32 -25 -16 -25
16 -33 52 -19 89 10 25 44 -31 44 -73z m-75 20 c-5 -6 -85 30 -85 38 0 21 46
14 67 -10 12 -14 20 -26 18 -28z m-372 -155 c-7 -11 -23 12 -23 32 0 11 4 9
14 -4 8 -11 12 -24 9 -28z m407 -117 c0 -3 -16 -21 -35 -40 l-35 -34 0 51 0
51 35 -11 c19 -6 35 -13 35 -17z m-124 -27 c-3 -21 -6 -49 -6 -62 0 -21 -6
-16 -38 30 -42 59 -39 69 17 69 33 0 34 0 27 -37z m-206 -17 c0 -2 -7 -7 -16
-10 -8 -3 -12 -2 -9 4 6 10 25 14 25 6z m-80 -21 c10 -12 10 -15 -3 -15 -8 0
-17 7 -21 15 -3 8 -2 15 3 15 5 0 14 -7 21 -15z m220 -20 l45 -24 -52 -1 c-50
0 -53 1 -53 25 0 30 3 30 60 0z m-210 -45 c0 -3 -16 -14 -35 -23 l-34 -16 11
27 c21 49 30 56 45 36 7 -10 13 -21 13 -24z m320 -10 c38 -20 37 -21 -38 -38
-52 -12 -63 0 -31 34 27 28 25 28 69 4z"/>
<path d="M3608 2598 c-33 -9 -98 -72 -86 -84 4 -3 118 73 136 90 7 8 -4 6 -50
-6z"/>
<path d="M3940 2474 c0 -12 6 -15 23 -10 12 3 27 6 32 6 6 0 3 5 -5 10 -23 15
-50 12 -50 -6z"/>
<path d="M3770 2435 l-24 -26 27 -27 27 -27 0 53 c0 28 -1 52 -3 52 -2 0 -14
-11 -27 -25z"/>
<path d="M3863 2368 l-62 -77 47 -26 c34 -19 54 -24 76 -19 54 11 57 16 27 56
l-28 37 -22 -40 c-13 -22 -24 -39 -26 -37 -1 2 0 29 3 61 4 56 5 57 23 41 25
-23 31 -15 27 37 l-3 44 -62 -77z"/>
<path d="M3980 2231 c0 -6 5 -13 10 -16 6 -3 10 1 10 9 0 9 -4 16 -10 16 -5 0
-10 -4 -10 -9z"/>
<path d="M3781 2168 c-7 -19 -5 -24 12 -31 12 -4 37 -7 57 -5 l35 3 -40 25
c-56 34 -54 34 -64 8z"/>
<path d="M3259 2053 c-25 -4 -26 -6 -21 -51 2 -26 5 -48 6 -49 6 -8 85 22 102
39 21 19 23 19 55 3 l34 -17 -40 41 c-40 42 -56 46 -136 34z"/>
<path d="M2984 2014 c3 -9 6 -18 6 -20 0 -3 26 -2 58 1 31 4 77 2 101 -3 39
-10 42 -9 28 5 -18 18 -82 32 -151 33 -40 0 -47 -3 -42 -16z"/>
<path d="M3475 2000 l-28 -29 28 -41 c15 -22 31 -40 34 -40 4 0 12 14 19 32 9
24 9 41 0 70 -6 21 -14 38 -18 38 -3 0 -19 -13 -35 -30z"/>
<path d="M3713 1987 l-21 -43 59 10 59 10 -32 33 c-17 18 -35 33 -38 33 -3 0
-15 -19 -27 -43z"/>
<path d="M3083 1924 l-22 -66 41 6 c23 4 45 9 49 12 7 4 -25 90 -40 106 -4 5
-17 -22 -28 -58z"/>
<path d="M2982 1930 c-16 -71 -17 -70 28 -70 22 0 40 3 40 8 -1 4 -13 31 -29
60 l-27 54 -12 -52z"/>
<path d="M2880 1910 c-14 -10 -23 -20 -20 -22 16 -12 60 -38 65 -38 8 0 -4 62
-14 72 -3 4 -17 -2 -31 -12z"/>
<path d="M3240 1839 c0 -59 2 -59 23 -7 15 36 15 38 -4 48 -18 10 -19 7 -19
-41z"/>
<path d="M3160 1816 l0 -55 33 6 c17 3 34 7 36 9 5 4 -37 70 -54 84 -13 11
-15 5 -15 -44z"/>
<path d="M3006 1802 c-2 -4 16 -15 41 -24 l45 -16 -23 24 c-22 24 -53 32 -63
16z"/>
<path d="M3031 1721 l-55 -28 68 -8 c37 -3 69 -5 71 -3 7 7 -11 62 -21 64 -5
2 -33 -10 -63 -25z"/>
<path d="M2951 1695 c0 -35 2 -37 11 -19 7 15 7 28 -1 40 -9 16 -10 12 -10
-21z"/>
<path d="M3347 1658 c-3 -18 -1 -37 4 -42 5 -6 9 7 9 32 0 50 -6 54 -13 10z"/>
<path d="M2980 1661 c17 -32 12 -40 -35 -63 -47 -23 -58 -38 -27 -38 9 0 34
-3 55 -7 l38 -6 -6 37 -7 36 33 -6 34 -6 -40 36 c-45 40 -61 46 -45 17z"/>
<path d="M2572 1578 c2 -6 14 -18 27 -26 22 -15 22 -15 10 11 -12 26 -45 39
-37 15z"/>
<path d="M3226 1543 c4 -21 8 -39 9 -41 4 -4 65 27 65 33 0 3 -18 14 -41 25
l-40 21 7 -38z"/>
<path d="M3238 1450 c5 -48 17 -59 33 -29 9 18 7 25 -13 45 l-24 24 4 -40z"/>
<path d="M2463 1438 c4 -25 0 -28 -30 -34 l-34 -6 38 -34 c23 -20 49 -33 66
-34 32 0 32 -1 11 -41 -8 -17 -13 -33 -11 -36 3 -2 25 1 48 7 72 18 69 15 57
54 -11 36 -22 44 -33 26 -3 -5 -14 -10 -23 -10 -12 1 -8 6 11 16 15 8 27 18
27 22 -1 4 -16 24 -34 46 -29 33 -36 37 -54 27 -17 -9 -23 -8 -32 6 -10 15
-11 14 -7 -9z"/>
<path d="M2897 1399 c-9 -6 -17 -18 -17 -28 0 -32 13 -32 27 0 15 37 14 41
-10 28z"/>
<path d="M2442 1270 c-23 -41 -20 -46 21 -31 20 8 23 15 19 40 -2 17 -7 31
-11 31 -3 0 -16 -18 -29 -40z"/>
<path d="M2402 1185 c-16 -34 -17 -31 18 -44 17 -5 30 -6 30 -2 0 9 -30 71
-34 71 -2 0 -8 -11 -14 -25z"/>
<path d="M2404 1104 c3 -9 6 -22 6 -30 0 -23 14 -16 33 16 l18 30 -32 0 c-24
0 -30 -3 -25 -16z"/>
<path d="M2516 994 c-15 -39 -7 -43 43 -21 56 25 56 37 1 37 -25 0 -40 -5 -44
-16z"/>
<path d="M2365 959 c-10 -15 -4 -18 51 -25 l49 -5 -44 20 c-50 24 -48 24 -56
10z"/>
<path d="M2374 889 c3 -17 6 -36 6 -41 0 -7 34 5 49 18 6 6 -41 54 -52 54 -5
0 -7 -14 -3 -31z"/>
<path d="M2212 869 c-19 -30 -8 -34 45 -18 62 19 68 39 11 39 -33 0 -46 -5
-56 -21z"/>
<path d="M2083 808 c-25 -33 -24 -37 7 -27 25 9 28 14 19 25 -14 17 -14 17
-26 2z"/>
<path d="M2000 630 c0 -39 0 -39 33 -33 17 3 34 8 36 10 6 4 -50 63 -61 63 -4
0 -8 -18 -8 -40z"/>
<path d="M1877 601 c-27 -41 -36 -81 -17 -81 5 0 30 10 55 22 40 19 47 20 55
8 23 -36 12 -47 -42 -43 l-53 3 40 -19 c53 -26 57 -25 85 4 l24 26 -60 60 -60
60 -27 -40z"/>
<path d="M2040 524 c0 -8 40 -74 45 -74 2 0 18 18 35 40 l32 40 -56 0 c-31 0
-56 -3 -56 -6z"/>
<path d="M1655 416 l-79 -38 40 -22 c50 -26 138 -101 109 -93 -11 3 -39 9 -63
12 -37 6 -45 4 -62 -17 -25 -30 -25 -33 5 -46 22 -10 35 -7 92 18 58 26 65 32
59 52 -3 13 -6 31 -6 41 0 14 -9 17 -45 17 -40 0 -45 2 -45 23 0 12 5 29 10
37 8 12 15 9 43 -18 33 -32 60 -41 72 -22 6 10 -29 86 -42 92 -5 2 -44 -14
-88 -36z"/>
<path d="M1512 370 c-18 -4 -36 -10 -39 -14 -3 -3 8 -21 26 -41 l31 -36 20 46
c11 26 20 49 20 51 0 5 -18 4 -58 -6z"/>
<path d="M1825 258 c-30 -16 -30 -17 -9 -32 17 -13 20 -12 31 7 21 38 15 46
-22 25z"/>
<path d="M1629 190 c-3 -20 -9 -48 -14 -67 -6 -26 5 -29 47 -10 l27 12 -30 35
c-16 19 -29 32 -30 30z"/>
<path d="M1716 153 c-9 -21 -8 -23 12 -23 33 0 42 15 17 26 -19 9 -25 9 -29
-3z"/>
<path d="M1767 99 c-8 -24 -18 -52 -22 -61 -6 -16 -1 -18 39 -18 40 0 48 4 58
26 11 23 8 28 -24 61 l-35 35 -16 -43z"/>
<path d="M1980 69 c0 -24 3 -30 16 -25 9 3 25 6 37 6 22 1 22 1 2 16 -47 36
-55 37 -55 3z"/>
</g>
</svg>
